<?xml version="1.0" encoding="UTF-8"?>
<svg enable-background="new 0 0 1958.828 1625.622" version="1.1" viewBox="0 0 1958.828 1625.622" xmlns="http://www.w3.org/2000/svg">
 <path d="m1674.1 340.73c-38.556 156.1-273.59 254.42-484.06 180.31-3.808-1.752-182.75 80.651-192.47 83.81 6.98-10.192 93.487-128.3 98.1-134.59-136.19-105.18-120.39-253.45-12.91-343.92 227.6-192.12 655.39-38.502 591.34 214.39z"/>
 <path d="m671.96 244.61c256.12-25.057 418.95 165.9 236.43 282.99 25.92 30.1 52.31 59.79 78.34 89.8-88.08-32.711-146.54-54.787-151.85-56.32-229.64 66.735-465.21-73.683-370.48-215.03 42.507-63.297 131.36-93.791 207.56-101.44z"/>
 <path d="m489.4 541.97c188.21 68.396 244.02 267.66 91.86 390.92-3.229 1.452 72.84 106.98 87.82 130.95-34.089-14.897-171.23-82.646-174.69-80.9-185.62 69.299-392.22-17.06-436.67-160.55-63.056-201.56 199-365.46 431.68-280.42z"/>
 <path d="m1464.6 565.05c303.07-92.914 591.62 143.94 364.7 299.89-97.108 65.428-243.19 78.698-364.5 43.38-3.706 0.632 7.28-2.944-172.84 64.08 29.54-34.07 59.45-67.84 88.88-101.99-2.624-2.815-32.644-19.545-57.32-50.59-54.354-68.951-32.888-148.44 36.36-202.31 31.02-24.18 67.24-40.99 104.72-52.46z"/>
 <path d="m919.15 690.77c107.56-56.798 246.56 17.827 236.19 133.72-8.265 95.461-123.47 158.67-226.49 114.49-87.669 47.327-82.093 44.362-87.32 46.78 6.357-11.288 42.502-70.714 44.93-74.56-5.427-5.881-36.518-32.773-43.59-78.65-8.74-60.088 23.983-114.63 76.28-141.78z"/>
 <path d="m1647 1052.3c61.421 57.554 1.47 149.29-71.34 123.54-37.289-12.746-57.978-55.074-43.91-93.34 16.843-47.585 77.841-62.803 115.25-30.2z"/>
 <path d="m1048.2 1036.5c78.675-9.986 113.41 93.458 47 134.23-58.764 34.977-128.92-23.376-105.44-87.25 8.81-24.9 32.25-43.66 58.44-46.98z"/>
 <path d="m1386.5 1065.8c41.448 56.325-15.212 135.07-82.91 111.08-37.283-12.744-57.977-55.066-43.91-93.33 18.928-53.495 92.753-65.261 126.82-17.75z"/>
 <path d="m832.96 1054.3c62.131 58.079 0.154 149.71-72.08 123.28-36.685-13.027-57.176-54.945-43.16-93.07 16.768-47.392 77.67-62.999 115.24-30.21z"/>
 <path d="m551.96 1055.3c40.277 37.65 29.645 93.244-9.8 117.46-58.773 34.982-128.91-23.397-105.44-87.25 16.768-47.392 77.67-62.999 115.24-30.21z"/>
 <path d="m279.96 1056.3c61.453 57.445 1.455 149.34-71.33 123.54-37.291-12.747-57.978-55.074-43.91-93.34 16.806-47.478 77.748-62.897 115.24-30.2z"/>
 <path d="m1530 1170.8c8.55-0.02 17.13-0.16 25.68 0.07 2.56 0.792 40.552 24.73 83.5 1.87 1.75-0.93 3.54-2.14 5.64-1.97 23.075 0.058 28.862-1.281 27.87 4.65-0.098 364.15-0.363 57.771-0.85 396.12-0.073 12.889-12.33 9.572-56.98 9.97-12.653 0.188-12.663-5.206-12.97-9.98-0.08-49.06 0.07-98.12-0.08-147.18-1.31-0.02-2.61-0.02-3.88 0.01-0.288 94.681 0.308 145.32-0.36 150.86-5.11 8.155-7.623 6.247-59.78 6.28-5.24 0.32-10.26-4.7-9.93-9.94 0.167-414-3.476-401.6 2.14-400.76z"/>
 <path d="m1677 1170.6c13.015 3.373 23.23 16.218 23.6 26.82-0.033 133.76 1.912 124.34-5.65 134.2-4.18 5.89-10.37 10.34-17.16 12.67-0.36-0.1-1.08-0.28-1.44-0.38-1.88-3.89-1.18-8.3-1.28-12.45 0-166.07-0.845-158.53 1.93-160.86z"/>
 <path d="m989.79 1171.7c8.2 0.24 16.46-0.38 24.63 0.31 5.7 2.64 11.24 5.72 17.32 7.48 22.1 7.09 47.06 4.59 67.3-6.79 2.398-1.532 26.669-0.96 27.67-0.94 2.41-0.06 4.35 2.22 3.94 4.61 0 1.032 0.358 397.68-2.88 402.03-3.918 5.323-7.011 3.964-55.98 4.06-13.353 0.144-11.825-8.175-11.94-9.96-0.08-49.06 0.07-98.12-0.08-147.18-1.31-0.03-2.6-0.03-3.88-0.01-0.589 161.53 3.489 153.27-9.06 157.04-17.02 0.24-34.05 0.02-51.08 0.11-5.24 0.32-10.26-4.7-9.93-9.93 0.183-421.62-4.266-401.62 3.97-400.83z"/>
 <path d="m1135.1 1171.6c13.118 3.308 23.58 16.798 23.58 26.77-0.033 133.75 1.912 124.32-5.65 134.21-4.01 5.76-9.99 9.91-16.45 12.5-2.9 1.07-3.05-2.95-3.37-4.81-0.491-174.7-0.762-166.34 1.89-168.67z"/>
 <path d="m1259.8 1171.7c8.2 0.24 16.46-0.38 24.63 0.31 5.7 2.63 11.23 5.72 17.32 7.48 22.1 7.09 47.06 4.59 67.29-6.79 2.03-1.29 4.49-0.97 6.78-1 18.927 0.299 25.905-1.527 24.84 4.68 0.035 234.86 0.266 221.91-0.78 231.02-0.288 174.96 2.66 171.47-6.71 174.26-4.286 1.257-52.43 0.741-53.43 0.73-13.722 0.062-9.385 1.867-9.96-157.08-1.31-0.02-2.6-0.02-3.88 0.01-0.529 162.08 3.586 153.51-9.06 157.03-17.02 0.24-34.05 0.02-51.07 0.11-5.25 0.32-10.27-4.7-9.94-9.94 0.106-188.73-0.83-179.06-0.83-179.06 0.194-236.79-2.095-222.42 4.8-221.76z"/>
 <path d="m1405.1 1171.6c11.23 2.88 20.61 12.67 23.45 23.94 0.19 41.9 0.19 83.83 0 125.74-2.69 10.94-11.62 19.77-21.98 23.78-3.22 1-3.15-3.64-3.42-5.7-0.032-173.02-0.813-165.99 1.95-167.76z"/>
 <path d="m1521.1 1171.8c2.87-1.14 3.03 2.96 3.36 4.82 0.472 177.23 0.35 165.09-1.23 168.28-2.454 1.753-20.134-7.209-24.12-23.57-0.858-125.55-6.176-137.49 21.99-149.53z"/>
 <path d="m718.78 1172.7c7.87 0.26 15.8-0.39 23.64 0.31 5.7 2.63 11.23 5.72 17.31 7.48 22.11 7.09 47.06 4.59 67.3-6.79 2.03-1.29 4.49-0.97 6.78-1 18.877 0.298 25.908-1.544 24.84 4.68-0.117 433.41-0.303 33.812-0.85 396.12-0.03 5.3-4.62 9.76-9.89 9.81-53.813 1.166-55.377 0.304-58.56-3.35-2.646-2.244-1.099 3.718-1.58-153.65-1.3-0.02-2.6-0.02-3.88 0.01-0.589 161.58 3.485 153.26-9.06 157.03-17.02 0.24-34.05 0.02-51.07 0.11-5.25 0.32-10.27-4.7-9.94-9.93 0.189-434.16-4.979-400.1 4.96-400.83z"/>
 <path d="m863.08 1172.6c11.23 2.87 20.61 12.68 23.45 23.94 0.904 136.01 1.466 128.03-5.53 137.02-4.01 5.76-9.99 9.91-16.45 12.5-3.21 1.02-3.15-3.65-3.42-5.7-0.032-172.32-0.832-165.98 1.95-167.76z"/>
 <path d="m981.34 1172.5c2.161 6.102 1.701 169.04-0.02 173.81-11.429-1.724-24.577-16.264-24.31-26.85 0-39.7 0.02-79.4-0.01-119.09-0.749-12.021 13.462-26.383 24.34-27.87z"/>
 <path d="m1249.1 1172.8c3.19-1.07 3.13 3.65 3.41 5.71 0.032 171.43 1.445 169.14-3.42 167.6-10.37-4.01-19.3-12.85-21.98-23.78-0.943-138.03-1.33-127.94 5.95-137.68 3.81-5.65 9.91-9.23 16.04-11.85z"/>
 <path d="m458.86 1173.7c5.787-0.502 32.552 21.341 73.5 7.07 5.49-1.68 10.47-4.59 15.68-6.92 8.24-0.35 16.52-0.05 24.78-0.15 2.66-0.38 5.35 1.84 4.83 4.66-0.097 360.21 0.366 111.75-0.82 250.07 0 155.46 4.804 156.28-12.95 156.01-43.421-0.193-57.953 2.432-56.99-7.94-0.18-49.74 0.06-99.47-0.12-149.2-1.3-0.03-2.59-0.03-3.88-0.01-0.486 157.9 1.031 150.44-1.59 152.64-6.303 5.906-2.783 4.442-58.55 4.51-5.24 0.32-10.26-4.7-9.93-9.94 0.038-208.38-0.82-113.1-0.82-397.08-0.277-5.141 1.236-3.44 26.86-3.72z"/>
 <path d="m582.05 1173.6c11.665 2.64 24.38 16.546 23.61 27.83-0.11 40.64 0.15 81.28-0.13 121.91-2.69 10.93-11.61 19.77-21.98 23.78-3.21 1.01-3.15-3.65-3.42-5.7-0.032-172.99-0.801-165.71 1.92-167.82z"/>
 <path d="m707.12 1173.8c3.17-1.09 3.15 3.66 3.41 5.71 0.032 171.04 1.45 169.14-3.42 167.6-10.37-4.01-19.3-12.85-21.98-23.78-0.857-125.52-6.182-137.49 21.99-149.53z"/>
 <path d="m164.79 1174.7c8.2 0.24 16.46-0.38 24.63 0.31 5.7 2.63 11.24 5.72 17.32 7.48 22.1 7.09 47.06 4.59 67.29-6.79 2.03-1.29 4.49-0.97 6.78-1 18.895 0.299 25.909-1.549 24.84 4.68 0.065 431.49 0.378 401.01-5.53 404.37-2.883 1.732-2.084 2.207-55.39 1.64-13.722 0.062-9.385 1.867-9.96-157.08-1.3-0.02-2.59-0.02-3.88 0.01-0.589 161.58 3.485 153.26-9.06 157.03-17.02 0.24-34.05 0.02-51.07 0.11-5.25 0.32-10.27-4.7-9.94-9.94 0.076-178 0.15-167.19-0.77-175.04-0.227-241.51-1.871-226.42 4.74-225.78z"/>
 <path d="m310.05 1174.6c13.118 3.412 23.36 16.446 23.6 26.82-0.033 130.09 0.314 122.82-0.68 125.17-5.533 15.407-21.188 22.809-23.57 21.33-0.92-2.02-1.33-4.24-1.29-6.43 0.128-171.48-0.887-164.68 1.94-166.89z"/>
 <path d="m428.34 1174.5c1.733 4.894 2.078 168-0.02 173.82-11.59-2.53-21.23-12.69-24.19-24.04-0.28-40.63-0.02-81.27-0.13-121.91-0.757-12.153 13.635-26.426 24.34-27.87z"/>
 <path d="m154.12 1175.8c2.89-1.11 3.03 2.96 3.36 4.84 0.455 175.42 0.32 164.91-1.23 168.28-4.407 2.488-24.784-13.483-24.22-25.4-0.135-135.88-1.929-125.15 6.05-135.86 3.81-5.66 9.91-9.22 16.04-11.86z"/>
</svg>
