<?xml version="1.0" encoding="UTF-8"?>
<svg viewBox="0 0 640 480" xmlns="http://www.w3.org/2000/svg">
 <g fill="#54e018">
  <path d="m39.434 269.91c0-50.983-15.144-92.312-33.826-92.312-18.681 0-33.826 41.33-33.826 92.312"/>
  <path d="m88.143 269.91c0-54.382-15.144-98.467-33.826-98.467-18.681 0-33.826 44.085-33.826 98.467"/>
  <path d="m135.5 269.91c0-49.283-15.144-89.235-33.826-89.235-18.681 0-33.826 39.952-33.826 89.235"/>
  <path d="m182.85 269.91c0-51.832-15.144-93.851-33.826-93.851-18.681 0-33.826 42.019-33.826 93.851"/>
  <path d="m21.845 161.45c0 14.87-9.0865 26.924-20.295 26.924-11.209 0-20.295-12.054-20.295-26.924s9.0865-26.924 20.295-26.924c9.1859 0 17.226 8.185 19.604 19.956"/>
  <path d="m77.973 156.68c-3.7915 15.999-15.639 26.28-26.462 22.963-10.823-3.3165-16.523-18.974-12.731-34.973 3.7916-15.999 15.639-26.28 26.462-22.963 8.8694 2.7179 14.546 13.903 13.84 27.271"/>
  <path d="m132.59 159.71c2.0674 16.402-5.2513 31.164-16.347 32.972-11.096 1.8084-21.766-10.022-23.833-26.424-2.0674-16.402 5.2513-31.164 16.347-32.972 9.0928-1.482 18.19 6.2489 22.18 18.849"/>
  <path d="m182.85 158.37c0 16.569-9.0866 30.002-20.295 30.002-11.209 0-20.295-13.432-20.295-30.002 0-16.569 9.0866-30.002 20.295-30.002 9.1858 0 17.226 9.1204 19.604 22.237"/>
  <path d="m180.59 168.96c-6.687 14.722-20.181 21.914-30.14 16.065-9.9589-5.8491-12.611-22.525-5.9244-37.247 6.687-14.722 20.181-21.914 30.14-16.065 8.1614 4.7934 11.625 17.092 8.4436 29.987"/>
 </g>
 <g fill="#0c2113">
  <path d="m391.59 223.22c0-51.059-16.932-92.45-37.82-92.45-20.887 0-37.82 41.391-37.82 92.45"/>
  <path d="m447.56 223.22c0-48.628-16.932-88.048-37.82-88.048-20.887 0-37.82 39.42-37.82 88.048"/>
  <path d="m502.02 223.22c0-51.869-16.932-93.918-37.82-93.918-20.887 0-37.82 42.048-37.82 93.918"/>
  <path d="m554.97 223.22c0-47.006-16.932-85.113-37.82-85.113-20.887 0-37.82 38.106-37.82 85.113"/>
  <path d="m373.44 114.63c0 16.209-11.853 29.349-26.474 29.349s-26.474-13.14-26.474-29.349 11.853-29.349 26.474-29.349c11.982 0 22.47 8.9221 25.572 21.753"/>
  <path d="m427.9 119.76c0 14.183-10.159 25.681-22.692 25.681-12.532 0-22.692-11.498-22.692-25.681s10.16-25.681 22.692-25.681c10.27 0 19.26 7.8068 21.919 19.034"/>
  <path d="m490.65 115.22c-4.2393 15.26-17.485 25.066-29.586 21.902-12.101-3.1632-18.474-18.098-14.234-33.357 4.2392-15.26 17.485-25.066 29.586-21.902 9.9166 2.5923 16.264 13.261 15.474 26.011"/>
  <path d="m551.71 118.11c2.3115 15.644-5.8713 29.724-18.277 31.449-12.406 1.7248-24.336-9.559-26.648-25.203-2.3115-15.644 5.8713-29.724 18.277-31.449 10.166-1.4135 20.338 5.9603 24.799 17.978"/>
 </g>
 <g fill="#1b5e2a">
  <path d="m268.82 219.68c0-53.532 17.676-96.928 39.482-96.928 21.805 0 39.482 43.396 39.482 96.928"/>
  <path d="m210.38 219.68c0-50.983 17.676-92.312 39.482-92.312 21.805 0 39.482 41.33 39.482 92.312"/>
  <path d="m153.53 219.68c0-54.382 17.676-98.467 39.482-98.467 21.805 0 39.482 44.085 39.482 98.467"/>
  <path d="m98.256 219.68c0-49.283 17.677-89.235 39.482-89.235s39.482 39.952 39.482 89.235"/>
  <path d="m42.981 219.68c0-51.832 17.676-93.851 39.482-93.851 21.805 0 39.482 42.019 39.482 93.851"/>
  <path d="m287.77 105.83c0 16.994 12.374 30.771 27.637 30.771 15.264 0 27.637-13.777 27.637-30.771s-12.374-30.771-27.637-30.771c-12.509 0-23.458 9.3542-26.695 22.807"/>
  <path d="m230.91 111.21c0 14.87 10.606 26.924 23.689 26.924s23.689-12.054 23.689-26.924-10.606-26.924-23.689-26.924c-10.722 0-20.107 8.185-22.882 19.956"/>
  <path d="m165.4 106.45c4.4255 15.999 18.254 26.28 30.886 22.963 12.632-3.3164 19.285-18.974 14.86-34.973-4.4255-15.999-18.254-26.28-30.886-22.963-10.352 2.7179-16.978 13.903-16.154 27.271"/>
  <path d="m101.65 109.48c-2.4131 16.402 6.1293 31.164 19.08 32.972 12.951 1.8084 25.406-10.022 27.819-26.424 2.4131-16.402-6.1293-31.164-19.08-32.972-10.613-1.482-21.232 6.249-25.889 18.849"/>
  <path d="m42.981 108.14c0 16.569 10.606 30.002 23.689 30.002s23.689-13.432 23.689-30.002c0-16.569-10.606-30.002-23.689-30.002-10.722 0-20.107 9.1204-22.882 22.237"/>
  <path d="m45.623 118.73c7.805 14.722 23.556 21.914 35.18 16.065 11.624-5.8491 14.72-22.525 6.9149-37.247-7.805-14.722-23.556-21.914-35.18-16.065-9.5261 4.7934-13.568 17.092-9.8555 29.987"/>
 </g>
 <g fill="#5b991e">
  <path d="m476.24 289.68c0-53.532 17.676-96.928 39.482-96.928 21.805 0 39.482 43.396 39.482 96.928"/>
  <path d="m417.8 289.68c0-50.983 17.676-92.312 39.482-92.312 21.805 0 39.482 41.33 39.482 92.312"/>
  <path d="m360.95 289.68c0-54.382 17.677-98.467 39.482-98.467s39.482 44.085 39.482 98.467"/>
  <path d="m305.68 289.68c0-49.283 17.676-89.235 39.482-89.235 21.805 0 39.482 39.952 39.482 89.235"/>
  <path d="m250.4 289.68c0-51.832 17.676-93.851 39.482-93.851 21.805 0 39.482 42.019 39.482 93.851"/>
  <path d="m495.19 175.83c0 16.994 12.374 30.771 27.637 30.771 15.264 0 27.637-13.777 27.637-30.771s-12.374-30.771-27.637-30.771c-12.509 0-23.458 9.3542-26.695 22.807"/>
  <path d="m438.33 181.21c0 14.87 10.606 26.924 23.689 26.924s23.689-12.054 23.689-26.924-10.606-26.924-23.689-26.924c-10.722 0-20.107 8.185-22.882 19.956"/>
  <path d="m372.82 176.45c4.4255 15.999 18.254 26.28 30.886 22.963 12.632-3.3164 19.285-18.974 14.86-34.973-4.4255-15.999-18.254-26.28-30.886-22.963-10.352 2.7179-16.978 13.903-16.154 27.271"/>
  <path d="m309.07 179.48c-2.4131 16.402 6.1293 31.164 19.08 32.972 12.951 1.8084 25.406-10.022 27.819-26.424 2.4131-16.402-6.1293-31.164-19.08-32.972-10.613-1.482-21.232 6.249-25.889 18.849"/>
  <path d="m250.4 178.14c0 16.569 10.606 30.002 23.689 30.002s23.689-13.432 23.689-30.002c0-16.569-10.606-30.002-23.689-30.002-10.722 0-20.107 9.1204-22.882 22.237"/>
  <path d="m253.04 188.73c7.805 14.722 23.556 21.914 35.18 16.065 11.624-5.8491 14.72-22.525 6.915-37.247-7.8051-14.722-23.556-21.914-35.18-16.065-9.5261 4.7934-13.568 17.092-9.8555 29.987"/>
 </g>
 <g fill="#112d05">
  <path d="m75.054 281.3c0-53.532-17.423-96.928-38.916-96.928s-38.916 43.396-38.916 96.928"/>
  <path d="m132.65 281.3c0-50.983-17.423-92.312-38.916-92.312s-38.916 41.33-38.916 92.312"/>
  <path d="m188.69 281.3c0-54.382-17.423-98.467-38.916-98.467s-38.916 44.085-38.916 98.467"/>
  <path d="m243.17 281.3c0-49.283-17.423-89.235-38.916-89.235s-38.916 39.952-38.916 89.235"/>
  <path d="m297.65 281.3c0-51.832-17.423-93.851-38.916-93.851s-38.916 42.019-38.916 93.851"/>
  <path d="m56.375 167.45c0 16.994-12.196 30.771-27.241 30.771s-27.241-13.777-27.241-30.771 12.196-30.771 27.241-30.771c12.33 0 23.122 9.3542 26.313 22.807"/>
  <path d="m112.41 172.83c0 14.87-10.454 26.924-23.35 26.924s-23.35-12.054-23.35-26.924 10.454-26.924 23.35-26.924c10.568 0 19.819 8.185 22.554 19.956"/>
  <path d="m176.99 168.07c-4.3621 15.999-17.992 26.28-30.444 22.963-12.451-3.3164-19.009-18.974-14.647-34.973 4.3621-15.999 17.992-26.28 30.444-22.963 10.204 2.7179 16.735 13.903 15.923 27.271"/>
  <path d="m239.82 171.09c2.3785 16.402-6.0415 31.164-18.807 32.972-12.765 1.8084-25.042-10.022-27.42-26.424-2.3785-16.402 6.0416-31.164 18.807-32.972 10.461-1.482 20.927 6.249 25.518 18.849"/>
  <path d="m297.65 169.75c0 16.569-10.454 30.002-23.35 30.002s-23.35-13.432-23.35-30.002c0-16.569 10.454-30.002 23.35-30.002 10.568 0 19.819 9.1204 22.554 22.237"/>
  <path d="m295.05 180.34c-7.6933 14.722-23.218 21.914-34.676 16.065-11.458-5.8491-14.509-22.525-6.8159-37.247 7.6932-14.722 23.218-21.914 34.676-16.065 9.3896 4.7934 13.374 17.092 9.7143 29.987"/>
 </g>
 <g fill="#105910">
  <path d="m264 316.61c0-53.532-17.423-96.928-38.916-96.928s-38.916 43.396-38.916 96.928"/>
  <path d="m321.6 316.61c0-50.983-17.423-92.312-38.916-92.312s-38.916 41.33-38.916 92.312"/>
  <path d="m377.64 316.61c0-54.382-17.423-98.467-38.916-98.467s-38.916 44.085-38.916 98.467"/>
  <path d="m432.12 316.61c0-49.283-17.423-89.235-38.916-89.235s-38.916 39.952-38.916 89.235"/>
  <path d="m486.6 316.61c0-51.832-17.423-93.851-38.916-93.851s-38.916 42.019-38.916 93.851"/>
  <path d="m245.32 202.76c0 16.994-12.196 30.771-27.241 30.771s-27.241-13.777-27.241-30.771 12.196-30.771 27.241-30.771c12.33 0 23.122 9.3542 26.313 22.807"/>
  <path d="m301.36 208.14c0 14.87-10.454 26.924-23.35 26.924s-23.35-12.054-23.35-26.924 10.454-26.924 23.35-26.924c10.568 0 19.819 8.185 22.554 19.956"/>
  <path d="m365.94 203.38c-4.3621 15.999-17.992 26.28-30.444 22.963-12.451-3.3165-19.009-18.974-14.647-34.973 4.3621-15.999 17.992-26.28 30.444-22.963 10.204 2.7179 16.735 13.903 15.923 27.271"/>
  <path d="m428.77 206.41c2.3785 16.402-6.0416 31.164-18.807 32.972-12.765 1.8084-25.042-10.022-27.42-26.424-2.3785-16.402 6.0415-31.164 18.807-32.972 10.461-1.482 20.928 6.249 25.518 18.849"/>
  <path d="m486.6 205.07c0 16.569-10.454 30.002-23.35 30.002s-23.35-13.432-23.35-30.002c0-16.569 10.454-30.002 23.35-30.002 10.568 0 19.819 9.1204 22.554 22.237"/>
  <path d="m484 215.66c-7.6933 14.722-23.218 21.914-34.676 16.065-11.458-5.8491-14.509-22.525-6.8159-37.247 7.6932-14.722 23.218-21.914 34.676-16.065 9.3896 4.7934 13.374 17.092 9.7143 29.987"/>
 </g>
 <g fill="#007f00">
  <path d="m131.55 342.69c0-53.532 17.423-96.928 38.916-96.928s38.916 43.396 38.916 96.928"/>
  <path d="m73.956 342.69c0-50.983 17.423-92.312 38.916-92.312s38.916 41.33 38.916 92.312"/>
  <path d="m17.917 342.69c0-54.382 17.423-98.467 38.916-98.467s38.916 44.085 38.916 98.467"/>
  <path d="m-36.565 342.69c0-49.283 17.423-89.235 38.916-89.235s38.916 39.952 38.916 89.235"/>
  <path d="m150.23 228.83c0 16.994 12.196 30.771 27.241 30.771s27.241-13.777 27.241-30.771-12.196-30.771-27.241-30.771c-12.33 0-23.122 9.3542-26.313 22.807"/>
  <path d="m94.193 234.22c0 14.87 10.454 26.924 23.35 26.924s23.35-12.054 23.35-26.924-10.454-26.924-23.35-26.924c-10.568 0-19.819 8.185-22.554 19.956"/>
  <path d="m29.618 229.45c4.3621 15.999 17.992 26.28 30.444 22.963 12.451-3.3165 19.009-18.974 14.647-34.973-4.3621-15.999-17.992-26.28-30.444-22.963-10.204 2.7179-16.735 13.903-15.923 27.271"/>
  <path d="m-33.216 232.48c-2.3785 16.402 6.0415 31.164 18.807 32.972 12.765 1.8084 25.042-10.022 27.42-26.424 2.3785-16.402-6.0415-31.164-18.807-32.972-10.461-1.482-20.928 6.249-25.518 18.849"/>
 </g>
 <g fill="#0a1106">
  <path d="m285.38 376.38c0-53.532-15.144-96.928-33.826-96.928-18.681 0-33.826 43.396-33.826 96.928"/>
  <path d="m335.44 376.38c0-50.983-15.144-92.312-33.826-92.312-18.681 0-33.826 41.33-33.826 92.312"/>
  <path d="m384.15 376.38c0-54.382-15.144-98.467-33.826-98.467-18.681 0-33.826 44.085-33.826 98.467"/>
  <path d="m431.51 376.38c0-49.283-15.144-89.235-33.826-89.235-18.681 0-33.826 39.952-33.826 89.235"/>
  <path d="m478.86 376.38c0-51.832-15.144-93.851-33.826-93.851-18.681 0-33.826 42.019-33.826 93.851"/>
  <path d="m269.14 262.53c0 16.994-10.601 30.771-23.678 30.771s-23.678-13.777-23.678-30.771 10.601-30.771 23.678-30.771c10.717 0 20.097 9.3542 22.871 22.807"/>
  <path d="m317.85 267.92c0 14.87-9.0866 26.924-20.295 26.924-11.209 0-20.295-12.054-20.295-26.924s9.0866-26.924 20.295-26.924c9.1858 0 17.226 8.185 19.604 19.956"/>
  <path d="m373.98 263.15c-3.7916 15.999-15.639 26.28-26.462 22.963-10.823-3.3164-16.523-18.974-12.731-34.973 3.7916-15.999 15.639-26.28 26.462-22.963 8.8694 2.7179 14.546 13.903 13.84 27.271"/>
  <path d="m428.59 266.18c2.0674 16.402-5.2513 31.164-16.347 32.972-11.096 1.8084-21.766-10.022-23.833-26.424-2.0674-16.402 5.2513-31.164 16.347-32.972 9.0929-1.482 18.19 6.249 22.18 18.849"/>
  <path d="m478.86 264.84c0 16.569-9.0866 30.002-20.295 30.002-11.209 0-20.295-13.432-20.295-30.002 0-16.569 9.0866-30.002 20.295-30.002 9.1858 0 17.226 9.1204 19.604 22.237"/>
  <path d="m476.6 275.43c-6.687 14.722-20.181 21.914-30.14 16.065-9.9589-5.8491-12.611-22.525-5.9243-37.247 6.687-14.722 20.181-21.914 30.14-16.065 8.1614 4.7934 11.625 17.092 8.4437 29.987"/>
 </g>
 <g fill="#03a842">
  <path d="m96.189 411c0-50.983-15.144-92.312-33.826-92.312-18.681 0-33.826 41.33-33.826 92.312"/>
  <path d="m144.9 411c0-54.382-15.144-98.467-33.826-98.467-18.681 0-33.826 44.085-33.826 98.467"/>
  <path d="m192.25 411c0-49.283-15.144-89.235-33.826-89.235-18.681 0-33.826 39.952-33.826 89.235"/>
  <path d="m239.61 411c0-51.832-15.144-93.851-33.826-93.851-18.681 0-33.826 42.019-33.826 93.851"/>
  <path d="m78.6 302.53c0 14.87-9.0866 26.924-20.295 26.924-11.209 0-20.295-12.054-20.295-26.924s9.0866-26.924 20.295-26.924c9.1858 0 17.226 8.185 19.604 19.956"/>
  <path d="m134.73 297.77c-3.7915 15.999-15.639 26.28-26.462 22.963-10.823-3.3165-16.523-18.974-12.731-34.973 3.7915-15.999 15.639-26.28 26.462-22.963 8.8694 2.7179 14.546 13.903 13.84 27.271"/>
  <path d="m189.34 300.8c2.0674 16.402-5.2512 31.164-16.347 32.972-11.096 1.8084-21.766-10.022-23.834-26.424-2.0674-16.402 5.2513-31.164 16.347-32.972 9.0929-1.482 18.19 6.249 22.18 18.849"/>
  <path d="m239.61 299.45c0 16.569-9.0866 30.002-20.295 30.002-11.209 0-20.295-13.432-20.295-30.002 0-16.569 9.0866-30.002 20.295-30.002 9.1858 0 17.226 9.1204 19.604 22.237"/>
  <path d="m237.35 310.05c-6.687 14.722-20.181 21.914-30.14 16.065-9.9589-5.8491-12.611-22.525-5.9244-37.247 6.687-14.722 20.181-21.914 30.14-16.065 8.1614 4.7934 11.625 17.092 8.4436 29.987"/>
 </g>
 <g fill="#56ff56">
  <path d="m310.86 427.58c0-53.532-15.144-96.928-33.826-96.928-18.681 0-33.826 43.396-33.826 96.928"/>
  <path d="m360.93 427.58c0-50.983-15.144-92.312-33.826-92.312-18.681 0-33.826 41.33-33.826 92.312"/>
  <path d="m409.64 427.58c0-54.382-15.144-98.467-33.826-98.467-18.681 0-33.826 44.085-33.826 98.467"/>
  <path d="m456.99 427.58c0-49.283-15.144-89.235-33.826-89.235-18.681 0-33.826 39.952-33.826 89.235"/>
  <path d="m504.35 427.58c0-51.832-15.144-93.851-33.826-93.851-18.681 0-33.826 42.019-33.826 93.851"/>
  <path d="m294.63 313.73c0 16.994-10.601 30.771-23.678 30.771s-23.678-13.777-23.678-30.771 10.601-30.771 23.678-30.771c10.717 0 20.098 9.3542 22.871 22.807"/>
  <path d="m343.34 319.12c0 14.87-9.0866 26.924-20.295 26.924-11.209 0-20.295-12.054-20.295-26.924s9.0866-26.924 20.295-26.924c9.1858 0 17.226 8.185 19.604 19.956"/>
  <path d="m399.46 314.35c-3.7915 15.999-15.639 26.28-26.462 22.963-10.823-3.3165-16.523-18.974-12.731-34.973 3.7916-15.999 15.639-26.28 26.462-22.963 8.8694 2.7179 14.546 13.903 13.84 27.271"/>
  <path d="m454.08 317.38c2.0674 16.402-5.2513 31.164-16.347 32.972-11.096 1.8084-21.766-10.022-23.833-26.424-2.0674-16.402 5.2513-31.164 16.347-32.972 9.0928-1.482 18.19 6.2489 22.18 18.849"/>
  <path d="m504.35 316.04c0 16.569-9.0866 30.002-20.295 30.002-11.209 0-20.295-13.432-20.295-30.002 0-16.569 9.0866-30.002 20.295-30.002 9.1858 0 17.226 9.1204 19.604 22.237"/>
  <path d="m502.08 326.63c-6.687 14.722-20.181 21.914-30.14 16.065-9.9589-5.8491-12.611-22.525-5.9244-37.247 6.687-14.722 20.181-21.914 30.14-16.065 8.1614 4.7934 11.625 17.092 8.4436 29.987"/>
 </g>
 <g fill="#034f03">
  <path d="m317.31 444.85c0-53.532 15.144-96.928 33.826-96.928 18.681 0 33.826 43.396 33.826 96.928"/>
  <path d="m267.24 444.85c0-50.983 15.144-92.312 33.826-92.312 18.681 0 33.826 41.33 33.826 92.312"/>
  <path d="m218.54 444.85c0-54.382 15.144-98.467 33.826-98.467 18.681 0 33.826 44.085 33.826 98.467"/>
  <path d="m171.18 444.85c0-49.283 15.144-89.235 33.826-89.235 18.681 0 33.826 39.952 33.826 89.235"/>
  <path d="m123.82 444.85c0-51.832 15.144-93.851 33.826-93.851 18.681 0 33.826 42.019 33.826 93.851"/>
  <path d="m333.54 331c0 16.994 10.601 30.771 23.678 30.771s23.678-13.776 23.678-30.771c0-16.994-10.601-30.771-23.678-30.771-10.717 0-20.097 9.3542-22.871 22.807"/>
  <path d="m284.83 336.38c0 14.87 9.0866 26.924 20.295 26.924 11.209 0 20.295-12.054 20.295-26.924s-9.0866-26.924-20.295-26.924c-9.1858 0-17.226 8.185-19.604 19.956"/>
  <path d="m228.71 331.62c3.7916 15.999 15.639 26.28 26.462 22.963 10.823-3.3165 16.523-18.974 12.731-34.973-3.7916-15.999-15.639-26.28-26.462-22.963-8.8694 2.7179-14.546 13.903-13.84 27.271"/>
  <path d="m174.09 334.65c-2.0674 16.402 5.2513 31.164 16.347 32.972 11.095 1.8084 21.766-10.022 23.833-26.424 2.0674-16.402-5.2513-31.164-16.347-32.972-9.0929-1.482-18.19 6.249-22.18 18.849"/>
  <path d="m123.82 333.31c0 16.57 9.0866 30.002 20.295 30.002 11.209 0 20.295-13.432 20.295-30.002 0-16.569-9.0866-30.002-20.295-30.002-9.1857 0-17.226 9.1204-19.604 22.237"/>
  <path d="m126.09 343.9c6.687 14.722 20.181 21.914 30.14 16.065 9.9589-5.8491 12.611-22.525 5.9244-37.247-6.687-14.722-20.181-21.914-30.14-16.065-8.1614 4.7934-11.625 17.093-8.4437 29.987"/>
 </g>
</svg>
