<?xml version="1.0" encoding="UTF-8" standalone="no"?>
<!-- Created with Inkscape (http://www.inkscape.org/) -->

<svg
   xmlns:dc="http://purl.org/dc/elements/1.1/"
   xmlns:cc="http://creativecommons.org/ns#"
   xmlns:rdf="http://www.w3.org/1999/02/22-rdf-syntax-ns#"
   xmlns:svg="http://www.w3.org/2000/svg"
   xmlns="http://www.w3.org/2000/svg"
   xmlns:sodipodi="http://sodipodi.sourceforge.net/DTD/sodipodi-0.dtd"
   xmlns:inkscape="http://www.inkscape.org/namespaces/inkscape"
   width="1000"
   height="950"
   viewBox="0 0 264.58333 251.35424"
   version="1.1"
   id="svg1759"
   inkscape:version="0.92.3 (2405546, 2018-03-11)"
   sodipodi:docname="social_media_connect_dunk_edit.svg">
  <defs
     id="defs1753">
    <clipPath
       clipPathUnits="userSpaceOnUse"
       id="clipPath348">
      <path
         d="M 0,841.89 H 1190.55 V 0 H 0 Z"
         id="path346"
         inkscape:connector-curvature="0" />
    </clipPath>
    <clipPath
       clipPathUnits="userSpaceOnUse"
       id="clipPath368">
      <path
         d="M 916.895,433.675 H 964.82 V 397.088 H 916.895 Z"
         id="path366"
         inkscape:connector-curvature="0" />
    </clipPath>
    <clipPath
       clipPathUnits="userSpaceOnUse"
       id="clipPath48">
      <path
         d="M 0,841.89 H 1190.55 V 0 H 0 Z"
         id="path46"
         inkscape:connector-curvature="0" />
    </clipPath>
  </defs>
  <sodipodi:namedview
     id="base"
     pagecolor="#ffffff"
     bordercolor="#666666"
     borderopacity="1.0"
     inkscape:pageopacity="0.0"
     inkscape:pageshadow="2"
     inkscape:zoom="0.7"
     inkscape:cx="-46.710877"
     inkscape:cy="431.53217"
     inkscape:document-units="mm"
     inkscape:current-layer="g344"
     showgrid="false"
     units="px"
     inkscape:window-width="2560"
     inkscape:window-height="996"
     inkscape:window-x="1912"
     inkscape:window-y="-8"
     inkscape:window-maximized="1" />
  <metadata
     id="metadata1756">
    <rdf:RDF>
      <cc:Work
         rdf:about="">
        <dc:format>image/svg+xml</dc:format>
        <dc:type
           rdf:resource="http://purl.org/dc/dcmitype/StillImage" />
        <dc:title></dc:title>
      </cc:Work>
    </rdf:RDF>
  </metadata>
  <g
     inkscape:label="Layer 1"
     inkscape:groupmode="layer"
     id="layer1"
     transform="translate(0,-45.67917)">
    <g
       transform="matrix(0.35277777,0,0,-0.35277777,-30.497416,321.25784)"
       id="g42">
      <g
         id="g44"
         clip-path="url(#clipPath48)">
        <g
           id="g50"
           transform="translate(655.875,523.833)">
          <path
             d="m 0,0 c 0,30.283 24.549,54.833 54.832,54.833 30.283,0 54.834,-24.55 54.834,-54.833 0,-30.283 -24.551,-54.833 -54.834,-54.833 C 24.549,-54.833 0,-30.283 0,0"
             style="fill:#0a819f;fill-opacity:1;fill-rule:nonzero;stroke:none"
             id="path52"
             inkscape:connector-curvature="0" />
        </g>
        <g
           id="g54"
           transform="translate(732.4941,546.8633)">
          <path
             d="m 0,0 c 5.945,-0.158 8.91,-3.527 8.939,-10.134 0,-0.431 -0.013,-0.892 -0.029,-1.353 -0.258,-5.601 -4.433,-13.214 -12.521,-22.873 -8.336,-10.108 -15.403,-15.176 -21.217,-15.201 -3.615,0 -6.623,3.092 -9.029,9.283 l -2.532,8.494 -2.49,8.479 c -1.844,6.146 -3.814,9.212 -5.916,9.212 -0.461,0 -2.059,-0.895 -4.795,-2.678 l -2.922,3.456 4.533,3.755 4.452,3.716 c 3.988,3.194 7.023,4.937 9.093,5.18 0.289,0.029 0.567,0.045 0.854,0.045 4.258,0 6.939,-3.066 7.973,-9.213 0.589,-3.498 1.08,-6.349 1.468,-8.539 0.373,-2.184 0.694,-3.71 0.95,-4.592 1.412,-5.799 2.937,-8.721 4.562,-8.752 1.268,0 3.195,1.902 5.801,5.686 2.562,3.888 3.93,6.767 4.117,8.638 0.045,0.391 0.074,0.735 0.074,1.066 0,2.55 -1.398,3.814 -4.191,3.814 -1.41,0 -2.906,-0.302 -4.52,-0.892 2.879,8.91 8.436,13.372 16.653,13.403 z"
             style="fill:#f1f2f2;fill-opacity:1;fill-rule:nonzero;stroke:none"
             id="path56"
             inkscape:connector-curvature="0" />
        </g>
        <g
           id="g2251"
           transform="translate(0,-113.57143)">
          <g
             transform="translate(382.187,417.5947)"
             id="g58">
            <path
               inkscape:connector-curvature="0"
               id="path60"
               style="fill:#30bf39;fill-opacity:1;fill-rule:nonzero;stroke:none"
               d="m 0,0 c 0,30.284 24.549,54.833 54.832,54.833 30.283,0 54.833,-24.549 54.833,-54.833 0,-30.283 -24.55,-54.832 -54.833,-54.832 C 24.549,-54.832 0,-30.283 0,0" />
          </g>
          <g
             transform="translate(439.5708,449.2998)"
             id="g62">
            <path
               inkscape:connector-curvature="0"
               id="path64"
               style="fill:#f1f2f2;fill-opacity:1;fill-rule:evenodd;stroke:none"
               d="M 1.3152118e-8,-2.1428618 C -16.52,-2.1428618 -29.912,-15.535862 -29.912,-32.056862 c 0,-5.652 1.568,-10.938 4.293,-15.447 l -5.401,-16.047 16.561,5.301 c 4.287,-2.37 9.215,-3.721 14.459000013152117,-3.721 C 16.523,-61.970862 29.916,-48.576862 29.916,-32.056862 29.916,-15.535862 16.523,-2.1428618 1.3152117e-8,-2.1428618 m 0,-54.8160002 C -5.056,-56.958862 -9.768,-55.441862 -13.699,-52.839862 l -9.571,-3.065 3.112,9.248 c -2.982,4.106 -4.742,9.149 -4.742,14.6 0,13.733 11.171,24.9040002 24.900000013152105,24.9040002 C 13.732,-7.1528618 24.903,-18.323862 24.903,-32.056862 c 0,-13.731 -11.171,-24.902 -24.902999986847881,-24.902 M 14.027,-38.853862 c -0.75,0.41 -4.4329998,2.398 -5.1239998,2.68 -0.69,0.281 -1.195,0.426 -1.734,-0.319 -0.5360002,-0.744 -2.0650002,-2.408 -2.5270002,-2.902 -0.466,-0.494 -0.913,-0.539 -1.665,-0.129 -0.747,0.412 -3.17799999,1.311 -5.997,4.022 -2.195,2.107 -3.632,4.664 -4.049,5.444 -0.419,0.782 -0.003,1.18 0.393,1.545 0.357,0.332 0.797,0.866 1.197,1.297 0.395,0.43 0.536,0.744 0.809,1.244 0.274,0.498 0.163,0.95 -0.014,1.339 -0.176,0.389 -1.562,4.204 -2.14,5.757 -0.58,1.551 -1.225,1.321 -1.67,1.338 -0.446,0.016 -0.953,0.099 -1.461,0.119 -0.512,0.018 -1.346,-0.142 -2.072,-0.879 -0.729,-0.738 -2.772,-2.511 -2.912,-6.269 -0.141,-3.756 2.459,-7.49 2.822,-8.012 0.362,-0.525 4.963,-8.669 12.60900001,-12.017 7.65000019,-3.35 7.69100019,-2.328 9.09200019,-2.254 1.4059998,0.074 4.5879998,1.68 5.2919998,3.437 0.703,1.76 0.76,3.288 0.581,3.614 -0.18,0.324 -0.682,0.535 -1.43,0.945" />
          </g>
        </g>
        <g
           id="g66"
           transform="translate(671.2891,414.6816)">
          <path
             d="m 0,0 c 0,30.284 24.549,54.833 54.832,54.833 30.283,0 54.832,-24.549 54.832,-54.833 0,-30.282 -24.549,-54.832 -54.832,-54.832 C 24.549,-54.832 0,-30.282 0,0"
             style="fill:#f2780c;fill-opacity:1;fill-rule:nonzero;stroke:none"
             id="path68"
             inkscape:connector-curvature="0" />
        </g>
        <g
           id="g70"
           transform="translate(735.5586,400.5244)">
          <path
             d="m 0,0 h -18.875 c -2.596,0 -4.719,2.125 -4.719,4.72 0,2.594 2.123,4.719 4.719,4.719 H 0 C 2.598,9.439 4.721,7.314 4.721,4.72 4.721,2.125 2.598,0 0,0 m -18.875,28.315 h 9.439 c 2.594,0 4.717,-2.124 4.717,-4.719 0,-2.596 -2.123,-4.719 -4.717,-4.719 h -9.439 c -2.596,0 -4.719,2.123 -4.719,4.719 0,2.595 2.123,4.719 4.719,4.719 m 34.09,-7.078 h -3.174 c -1.943,0 -3.65,1.644 -3.779,3.538 0,10.103 -8.145,17.698 -18.319,17.698 h -9.281 c -10.164,0 -18.404,-8.185 -18.414,-18.286 V 4.123 c 0,-10.102 8.25,-18.28 18.414,-18.28 H 0.484 c 10.172,0 18.395,8.178 18.395,18.28 v 12.962 c 0,2.019 -1.629,4.152 -3.664,4.152"
             style="fill:#f1f2f2;fill-opacity:1;fill-rule:nonzero;stroke:none"
             id="path72"
             inkscape:connector-curvature="0" />
        </g>
        <g
           id="g74"
           transform="translate(382.0903,136.4482)">
          <path
             d="m 0,0 c 0,30.283 24.549,54.832 54.832,54.832 30.283,0 54.833,-24.549 54.833,-54.832 0,-30.283 -24.55,-54.832 -54.833,-54.832 C 24.549,-54.832 0,-30.283 0,0"
             style="fill:#df4723;fill-opacity:1;fill-rule:nonzero;stroke:none"
             id="path76"
             inkscape:connector-curvature="0" />
        </g>
        <g
           id="g78"
           transform="translate(438.5444,177.5986)">
          <path
             d="m 0,0 c 0.541,-0.414 1.01,-0.921 1.526,-1.366 4.663,-4.403 8.939,-9.265 12.379,-14.691 3.328,-5.253 5.887,-11.06 7.025,-17.193 0.627,-3.361 0.834,-6.809 0.466,-10.21 -0.166,-1.423 -0.412,-2.845 -0.865,-4.203 -0.635,-1.971 -1.469,-3.886 -2.614,-5.617 -0.985,-1.493 -2.216,-2.828 -3.639,-3.909 -1.565,-1.184 -3.352,-2.05 -5.212,-2.646 -2.312,-0.739 -4.735,-1.104 -7.149,-1.304 -2.886,-0.214 -5.785,-0.254 -8.662,0.112 -3.257,0.406 -6.49,1.271 -9.391,2.838 -2.685,1.445 -5.045,3.566 -6.562,6.235 -1.756,3.052 -2.336,6.666 -2.058,10.155 0.286,3.694 1.462,7.278 3.02,10.623 1.35,2.875 3.003,5.6 4.837,8.19 1.566,2.193 3.251,4.299 5.094,6.269 0.032,0.024 0.095,0.08 0.135,0.104 -0.033,-1.66 0.127,-3.329 0.604,-4.926 0.485,-1.629 1.302,-3.162 2.39,-4.473 0.065,-0.08 0.113,-0.191 0.233,-0.207 2.358,1.772 4.59,3.758 6.331,6.151 1.803,2.468 3.01,5.362 3.472,8.388 C 1.972,-7.763 1.447,-3.688 0,0"
             style="fill:#f1f2f2;fill-opacity:1;fill-rule:nonzero;stroke:none"
             id="path80"
             inkscape:connector-curvature="0" />
        </g>
        <g
           id="g82"
           transform="translate(122.1445,532.6133)">
          <path
             d="m 0,0 c 0,30.283 24.549,54.833 54.832,54.833 30.283,0 54.833,-24.55 54.833,-54.833 0,-30.283 -24.55,-54.832 -54.833,-54.832 C 24.549,-54.832 0,-30.283 0,0"
             style="fill:#005cff;fill-opacity:1;fill-rule:nonzero;stroke:none"
             id="path84"
             inkscape:connector-curvature="0" />
        </g>
        <g
           id="g86"
           transform="translate(164.8926,520.0264)">
          <path
             d="M 0,0 H -11.209 V 10.79 H 0.543 c 0,0 4.255,0.055 4.255,-5.545 C 4.798,0.573 1.685,0.049 0,0 M -11.209,26.025 H 0.543 c 0,0 2.853,0 2.853,-4.202 0,-4.198 -1.679,-4.806 -3.582,-4.81 H -11.209 Z M 5.807,14.766 c 0,0 6.159,0.459 6.159,7.682 0,7.228 -5.038,10.754 -11.423,10.754 H -20.468 V -7.177 H 0.543 c 0,0 12.822,-0.404 12.822,11.921 0,0 0.561,10.022 -7.558,10.022"
             style="fill:#f1f2f2;fill-opacity:1;fill-rule:nonzero;stroke:none"
             id="path88"
             inkscape:connector-curvature="0" />
        </g>
        <path
           d="M 203.342,550.85 H 186.68 v -4.971 h 16.662 z"
           style="fill:#f1f2f2;fill-opacity:1;fill-rule:nonzero;stroke:none"
           id="path90"
           inkscape:connector-curvature="0" />
        <g
           id="g92"
           transform="translate(188.4189,530.8164)">
          <path
             d="M 0,0 C 0,0 0.866,6.227 7.105,6.227 13.344,6.227 13.265,0 13.265,0 Z m 6.945,12.139 c -15.527,0 -15.509,-15.514 -15.509,-15.514 0,0 -1.067,-15.432 15.513,-15.432 0,0 13.816,-0.793 13.816,10.737 H 13.66 c 0,0 0.235,-4.343 -6.474,-4.343 0,0 -7.107,-0.476 -7.107,7.024 h 20.922 c 0,0 2.289,17.528 -14.056,17.528"
             style="fill:#f1f2f2;fill-opacity:1;fill-rule:nonzero;stroke:none"
             id="path94"
             inkscape:connector-curvature="0" />
        </g>
        <g
           id="g96"
           transform="translate(272.8994,156.8262)">
          <path
             d="m 0,0 c 0,30.283 24.55,54.833 54.833,54.833 30.283,0 54.832,-24.55 54.832,-54.833 0,-30.283 -24.549,-54.833 -54.832,-54.833 C 24.55,-54.833 0,-30.283 0,0"
             style="fill:#ea4c89;fill-opacity:1;fill-rule:nonzero;stroke:none"
             id="path98"
             inkscape:connector-curvature="0" />
        </g>
        <g
           id="g100"
           transform="translate(343.7559,133.5088)">
          <path
             d="m 0,0 c -0.379,2.177 -1.904,10.135 -5.422,19.839 1.973,0.307 3.893,0.428 5.693,0.428 5.915,0 10.54,-1.294 11.614,-1.622 C 10.607,10.938 6.195,4.269 0,0 m -16.024,-4.98 c -6.49,0 -12.478,2.198 -17.257,5.882 0.808,1.584 6.676,12.148 22.172,17.54 0.009,0.004 0.019,0.008 0.031,0.01 3.885,-10.116 5.531,-18.606 5.982,-21.238 -3.362,-1.413 -7.055,-2.194 -10.928,-2.194 m -28.292,28.252 c 0,0.233 0.003,0.466 0.01,0.699 0.169,-0.003 0.419,-0.003 0.743,-0.003 3.511,0 15.698,0.291 28.257,4.017 0.763,-1.491 1.488,-3.004 2.162,-4.516 -0.317,-0.091 -0.629,-0.183 -0.94,-0.284 -14.141,-4.567 -21.913,-16.658 -23.109,-18.634 -4.43,4.993 -7.123,11.548 -7.123,18.721 m 16.138,25.513 c 0.975,-1.343 5.82,-8.103 10.353,-16.116 -12.165,-3.197 -22.966,-3.406 -25.573,-3.406 h -0.277 c 1.872,8.632 7.704,15.804 15.497,19.522 m 12.154,2.741 c 7.134,0 13.657,-2.65 18.639,-7.017 -0.788,-1.076 -5.066,-6.422 -14.611,-10.029 -4.419,8.078 -9.256,14.767 -10.406,16.319 2.05,0.475 4.185,0.727 6.378,0.727 M 6.01,40.978 c 3.821,-4.735 6.142,-10.713 6.25,-17.229 -1.272,0.261 -6.655,1.264 -13.088,1.264 -2.074,0 -4.26,-0.104 -6.449,-0.374 -0.186,0.449 -0.37,0.897 -0.565,1.349 -0.568,1.335 -1.179,2.662 -1.814,3.968 9.9,4.078 14.677,9.739 15.666,11.022 m -22.034,15.785 c -18.466,0 -33.488,-15.005 -33.488,-33.447 0,-18.441 15.022,-33.444 33.488,-33.444 18.465,0 33.489,15.003 33.489,33.444 0,18.442 -15.024,33.447 -33.489,33.447"
             style="fill:#f1f2f2;fill-opacity:1;fill-rule:nonzero;stroke:none"
             id="path102"
             inkscape:connector-curvature="0" />
        </g>
        <g
           id="g104"
           transform="translate(186.1899,623.2983)">
          <path
             d="m 0,0 c 0,30.283 24.55,54.833 54.833,54.833 30.283,0 54.833,-24.55 54.833,-54.833 0,-30.283 -24.55,-54.833 -54.833,-54.833 C 24.55,-54.833 0,-30.283 0,0"
             style="fill:#314a7e;fill-opacity:1;fill-rule:nonzero;stroke:none"
             id="path106"
             inkscape:connector-curvature="0" />
        </g>
        <g
           id="g108"
           transform="translate(254.9185,623.2778)">
          <path
             d="M 0,0 H -9.088 V -32.409 H -22.561 V 0 h -6.406 v 11.448 h 6.406 v 7.408 c 0,5.298 2.517,13.594 13.593,13.594 l 9.98,-0.042 V 21.296 h -7.241 c -1.189,0 -2.859,-0.594 -2.859,-3.121 V 11.438 H 1.176 Z"
             style="fill:#f1f2f2;fill-opacity:1;fill-rule:nonzero;stroke:none"
             id="path110"
             inkscape:connector-curvature="0" />
        </g>
        <g
           id="g112"
           transform="translate(282.9204,679.751)">
          <path
             d="m 0,0 c 0,30.283 24.55,54.833 54.833,54.833 30.283,0 54.833,-24.55 54.833,-54.833 0,-30.283 -24.55,-54.833 -54.833,-54.833 C 24.55,-54.833 0,-30.283 0,0"
             style="fill:#005983;fill-opacity:1;fill-rule:nonzero;stroke:none"
             id="path114"
             inkscape:connector-curvature="0" />
        </g>
        <path
           d="m 310.995,653.551 h 12.649 v 38.056 h -12.649 z m 6.408,56.4 c -4.329,0 -7.16,-2.841 -7.16,-6.574 0,-3.654 2.75,-6.577 6.994,-6.577 h 0.082 c 4.413,0 7.157,2.923 7.157,6.577 -0.084,3.733 -2.744,6.574 -7.073,6.574 m 51.861,-34.576 v -21.824 h -12.652 v 20.36 c 0,5.113 -1.827,8.605 -6.408,8.605 -3.496,0 -5.574,-2.351 -6.491,-4.627 -0.333,-0.814 -0.419,-1.943 -0.419,-3.084 V 653.551 H 330.64 c 0,0 0.17,34.485 0,38.055 h 12.654 v -5.392 c -0.025,-0.043 -0.061,-0.084 -0.084,-0.125 h 0.084 v 0.125 c 1.682,2.587 4.681,6.286 11.404,6.286 8.325,0 14.566,-5.438 14.566,-17.125"
           style="fill:#f1f2f2;fill-opacity:1;fill-rule:nonzero;stroke:none"
           id="path116"
           inkscape:connector-curvature="0" />
        <g
           id="g118"
           transform="translate(179.6616,219.0254)">
          <path
             d="m 0,0 c 0,30.283 24.549,54.832 54.832,54.832 30.283,0 54.833,-24.549 54.833,-54.832 0,-30.284 -24.55,-54.834 -54.833,-54.834 C 24.549,-54.834 0,-30.284 0,0"
             style="fill:#7b519d;fill-opacity:1;fill-rule:nonzero;stroke:none"
             id="path120"
             inkscape:connector-curvature="0" />
        </g>
        <g
           id="g122"
           transform="translate(258.5444,206.4668)">
          <path
             d="m 0,0 c -1.768,1.424 -3.657,2.702 -5.517,4.008 -3.711,2.605 -7.102,2.807 -9.871,-1.385 -1.554,-2.352 -3.729,-2.456 -6.006,-1.424 -6.272,2.845 -11.115,7.227 -13.953,13.602 -1.254,2.82 -1.238,5.349 1.699,7.345 1.554,1.054 3.121,2.303 2.996,4.608 -0.163,3.006 -7.462,13.051 -10.345,14.111 -1.192,0.44 -2.38,0.41 -3.593,0.002 -6.759,-2.271 -9.557,-7.83 -6.877,-14.41 7.997,-19.635 22.071,-33.303 41.445,-41.646 1.105,-0.474 2.333,-0.665 2.954,-0.834 4.41,-0.045 9.577,4.205 11.07,8.423 C 5.437,-3.543 2.402,-1.934 0,0"
             style="fill:#f1f2f2;fill-opacity:1;fill-rule:nonzero;stroke:none"
             id="path124"
             inkscape:connector-curvature="0" />
        </g>
        <g
           id="g126"
           transform="translate(236.8208,246.0918)">
          <path
             d="m 0,0 c 14.164,-2.179 20.695,-8.914 22.5,-23.18 0.166,-1.317 -0.324,-3.3 1.556,-3.337 1.965,-0.037 1.491,1.916 1.507,3.236 C 25.729,-9.846 14.015,2.609 0.409,3.068 -0.617,2.921 -2.74,3.776 -2.873,1.477 -2.962,-0.075 -1.173,0.18 0,0"
             style="fill:#f1f2f2;fill-opacity:1;fill-rule:nonzero;stroke:none"
             id="path128"
             inkscape:connector-curvature="0" />
        </g>
        <g
           id="g130"
           transform="translate(239.5913,242.1797)">
          <path
             d="m 0,0 c -1.363,0.164 -3.16,0.807 -3.479,-1.084 -0.332,-1.984 1.671,-1.783 2.96,-2.071 8.748,-1.955 11.793,-5.14 13.234,-13.817 0.21,-1.264 -0.207,-3.234 1.942,-2.907 1.593,0.242 1.019,1.93 1.152,2.916 C 15.88,-8.633 8.74,-1.05 0,0"
             style="fill:#f1f2f2;fill-opacity:1;fill-rule:nonzero;stroke:none"
             id="path132"
             inkscape:connector-curvature="0" />
        </g>
        <g
           id="g134"
           transform="translate(240.395,235.3672)">
          <path
             d="m 0,0 c -0.91,-0.022 -1.802,-0.121 -2.136,-1.093 -0.503,-1.452 0.554,-1.799 1.628,-1.971 3.589,-0.577 5.477,-2.692 5.836,-6.27 0.097,-0.973 0.713,-1.758 1.651,-1.648 1.3,0.156 1.418,1.312 1.378,2.412 C 8.422,-4.551 3.878,0.096 0,0"
             style="fill:#f1f2f2;fill-opacity:1;fill-rule:nonzero;stroke:none"
             id="path136"
             inkscape:connector-curvature="0" />
        </g>
        <g
           id="g138"
           transform="translate(491.7749,157.7559)">
          <path
             d="m 0,0 c 0,30.283 24.549,54.833 54.832,54.833 30.283,0 54.833,-24.55 54.833,-54.833 0,-30.283 -24.55,-54.832 -54.833,-54.832 C 24.549,-54.832 0,-30.283 0,0"
             style="fill:#ef712b;fill-opacity:1;fill-rule:nonzero;stroke:none"
             id="path140"
             inkscape:connector-curvature="0" />
        </g>
        <g
           id="g142"
           transform="translate(577.1079,140.2402)">
          <path
             d="m 0,0 h -27.584 c -0.596,0.061 -1.066,0.535 -1.076,1.146 v 31.577 c 0.01,0.582 0.21,0.881 0.959,1.169 1.931,0.749 4.12,1.19 6.368,1.19 9.173,0 16.688,-7.037 17.486,-16 1.181,0.493 2.485,0.773 3.847,0.773 5.493,0 9.946,-4.455 9.946,-9.951 C 9.946,4.407 5.493,0 0,0 m -29.596,1.103 v 0.009 c -0.007,-0.6 -0.5,-1.091 -1.094,-1.091 -0.598,0 -1.089,0.491 -1.095,1.086 l -0.226,4.013 -0.222,4.117 0.448,22.304 v 0.112 c 0.001,0.339 0.16,0.642 0.406,0.846 0.189,0.154 0.43,0.247 0.689,0.247 0.206,0 0.396,-0.057 0.56,-0.152 0.312,-0.196 0.529,-0.541 0.539,-0.936 l 0.485,-22.421 z m -3.425,0.707 -0.042,-0.814 c -0.005,-0.284 -0.125,-0.541 -0.307,-0.726 -0.187,-0.182 -0.443,-0.298 -0.716,-0.298 -0.316,0 -0.595,0.145 -0.786,0.374 -0.142,0.166 -0.23,0.381 -0.239,0.607 -0.003,0.01 -0.003,0.024 -0.003,0.037 0,0 -0.393,8.247 -0.393,8.262 l 0.388,20.349 0.005,0.195 c 0.003,0.357 0.192,0.675 0.474,0.856 0.159,0.106 0.345,0.168 0.554,0.168 0.205,0 0.399,-0.064 0.562,-0.176 0.275,-0.183 0.456,-0.494 0.461,-0.848 L -32.632,9.243 Z M -36.545,0.934 V 0.94 c -0.008,-0.536 -0.432,-0.95 -0.956,-0.95 -0.527,0 -0.945,0.414 -0.961,0.944 l -0.426,8.313 0.426,17.268 c 0.016,0.535 0.434,0.954 0.961,0.954 0.524,0 0.948,-0.419 0.956,-0.954 l 0.482,-17.272 z m -3.456,-0.05 v 0.005 c -0.016,-0.493 -0.401,-0.884 -0.89,-0.884 -0.482,0 -0.875,0.391 -0.883,0.879 l -0.472,8.363 0.467,17.923 c 0.013,0.499 0.406,0.885 0.888,0.885 0.489,0 0.874,-0.386 0.89,-0.885 L -39.472,9.247 Z M -43.428,0.81 c -0.015,-0.456 -0.374,-0.815 -0.818,-0.815 -0.446,0 -0.804,0.359 -0.819,0.81 l -0.514,8.442 0.514,18.394 c 0.015,0.457 0.373,0.814 0.819,0.814 0.444,0 0.803,-0.357 0.818,-0.814 l 0.571,-18.394 z m -3.405,-0.057 v 0.005 c -0.015,-0.419 -0.345,-0.745 -0.75,-0.745 -0.405,0 -0.734,0.326 -0.75,0.74 l -0.55,8.494 c 0,0 0.55,17.794 0.55,17.798 0.016,0.414 0.345,0.746 0.75,0.746 0.405,0 0.735,-0.332 0.75,-0.746 l 0.622,-17.798 z m -3.425,-0.134 v 0.005 c -0.02,-0.376 -0.318,-0.675 -0.686,-0.675 -0.362,0 -0.66,0.299 -0.678,0.675 l -0.593,8.582 0.593,16.425 c 0.018,0.377 0.316,0.674 0.678,0.674 0.368,0 0.666,-0.297 0.686,-0.674 L -49.59,9.206 Z M -53.56,0.614 v 0.005 c -0.019,-0.34 -0.289,-0.609 -0.614,-0.609 -0.325,0 -0.596,0.269 -0.614,0.604 l -0.628,8.638 0.628,13.367 c 0.018,0.34 0.289,0.61 0.614,0.61 0.325,0 0.595,-0.27 0.614,-0.606 l 0.712,-13.371 z m -3.327,0.005 c -0.017,-0.307 -0.257,-0.535 -0.541,-0.535 -0.293,0 -0.524,0.228 -0.545,0.535 l -0.673,8.638 0.673,8.216 c 0.021,0.304 0.252,0.533 0.545,0.533 0.289,0 0.524,-0.229 0.541,-0.529 l 0.763,-8.22 z m -3.294,0.069 c -0.023,-0.264 -0.23,-0.464 -0.476,-0.464 -0.252,0 -0.458,0.2 -0.479,0.464 l -0.712,8.569 0.712,8.856 c 0.021,0.266 0.227,0.467 0.479,0.467 0.246,0 0.453,-0.201 0.476,-0.467 l 0.808,-8.856 z m -3.277,0.265 c -0.023,-0.231 -0.196,-0.395 -0.404,-0.395 -0.215,0 -0.385,0.164 -0.407,0.395 l -0.753,8.304 0.753,8.618 c 0.019,0.234 0.192,0.402 0.407,0.402 0.208,0 0.381,-0.168 0.404,-0.402 l 0.855,-8.618 z m -3.245,1.202 c -0.028,-0.192 -0.167,-0.326 -0.339,-0.326 -0.168,0 -0.313,0.134 -0.337,0.326 l -0.795,7.106 0.795,7.265 c 0.024,0.187 0.169,0.328 0.337,0.328 0.172,0 0.311,-0.136 0.339,-0.328 l 0.904,-7.265 z m -3.007,2.684 c -0.027,-0.181 -0.156,-0.31 -0.324,-0.31 -0.169,0 -0.298,0.129 -0.323,0.316 l -0.591,4.416 0.591,4.492 c 0.025,0.187 0.154,0.316 0.323,0.316 0.168,0 0.297,-0.129 0.324,-0.316 l 0.702,-4.496 z"
             style="fill:#f1f2f2;fill-opacity:1;fill-rule:nonzero;stroke:none"
             id="path144"
             inkscape:connector-curvature="0" />
        </g>
        <g
           id="g146"
           transform="translate(120.1152,312.5322)">
          <path
             d="m 0,0 c 0,30.283 24.549,54.832 54.832,54.832 30.284,0 54.833,-24.549 54.833,-54.832 0,-30.283 -24.549,-54.832 -54.833,-54.832 C 24.549,-54.832 0,-30.283 0,0"
             style="fill:#83358b;fill-opacity:1;fill-rule:nonzero;stroke:none"
             id="path148"
             inkscape:connector-curvature="0" />
        </g>
        <g
           id="g150"
           transform="translate(196.2886,324.4014)">
          <path
             d="m 0,0 c -0.261,-0.074 -0.803,-0.521 -1.636,-1.322 l -2.922,-3.051 -3.655,-4.051 c -1.274,-1.443 -2.429,-2.887 -3.494,-4.316 -1.064,-1.412 -2.007,-2.664 -2.81,-3.762 -0.814,-1.082 -1.325,-1.912 -1.557,-2.512 -0.052,-0.3 -0.081,-1.16 -0.081,-2.572 0,-1.428 0.022,-2.982 0.04,-4.664 0.031,-1.687 0.051,-3.262 0.083,-4.77 0.027,-1.488 0.058,-2.48 0.117,-2.978 0.204,-0.074 0.725,-0.106 1.567,-0.106 h 2.641 c 0.955,0 1.849,-0.031 2.69,-0.06 0.845,-0.043 1.416,-0.104 1.729,-0.197 l -0.08,-3.985 c -0.302,0 -0.986,0.016 -2.059,0.061 -1.065,0.031 -2.32,0.047 -3.735,0.047 h -8.434 c -0.573,0 -1.436,-0.016 -2.569,-0.047 -1.126,-0.045 -2.333,-0.078 -3.628,-0.119 -1.292,-0.034 -2.509,-0.063 -3.652,-0.063 h -2.571 l 0.461,3.791 h 1.596 c 0.774,0 1.558,0.014 2.359,0.047 0.804,0.014 1.57,0.131 2.29,0.315 0.734,0.195 1.256,0.543 1.597,1.041 0.151,0.222 0.252,0.992 0.301,2.314 0.051,1.311 0.072,2.83 0.072,4.514 0,1.701 0.017,3.32 0.028,4.859 0.021,1.531 0.041,2.572 0.072,3.086 0.059,0.314 -0.252,1.078 -0.946,2.299 -0.691,1.221 -1.535,2.722 -2.539,4.498 l -3.262,5.775 -3.386,5.989 -3.102,4.738 c -0.943,1.418 -1.687,2.383 -2.218,2.888 h -8.154 v 5.042 h 26.86 V 12.35 h 0.07 l -0.07,-0.871 V 7.687 h -8.203 l 3.082,-5.779 3.153,-5.908 2.8,-5.236 2.178,-4.11 10.936,13.875 h -6.647 L -15.543,5.57 H 8.164 L 7.974,5.238 h 0.12 L 6.327,1.867 H 6.247 L 5.544,0.529 H 1.407 C 1.155,0.363 0.904,0.258 0.663,0.211 0.422,0.135 0.202,0.076 0,0"
             style="fill:#f1f2f2;fill-opacity:1;fill-rule:nonzero;stroke:none"
             id="path152"
             inkscape:connector-curvature="0" />
        </g>
        <g
           id="g154"
           transform="translate(392.4634,695.3623)">
          <path
             d="m 0,0 c 0,30.283 24.55,54.832 54.833,54.832 30.283,0 54.833,-24.549 54.833,-54.832 0,-30.283 -24.55,-54.832 -54.833,-54.832 C 24.55,-54.832 0,-30.283 0,0"
             style="fill:#00aff0;fill-opacity:1;fill-rule:nonzero;stroke:none"
             id="path156"
             inkscape:connector-curvature="0" />
        </g>
        <g
           id="g158"
           transform="translate(460.5024,682.71)">
          <path
             d="m 0,0 c -1.176,-1.695 -2.904,-3.018 -5.165,-3.967 -2.263,-0.955 -4.939,-1.431 -8.028,-1.431 -3.702,0 -6.766,0.646 -9.186,1.959 -1.719,0.935 -3.111,2.189 -4.183,3.759 -1.077,1.569 -1.62,3.104 -1.62,4.604 0,0.879 0.337,1.648 0.991,2.277 0.664,0.629 1.517,0.944 2.526,0.944 0.826,0 1.532,-0.247 2.11,-0.741 0.572,-0.492 1.053,-1.205 1.444,-2.15 0.472,-1.096 0.987,-2.01 1.529,-2.738 0.54,-0.723 1.303,-1.325 2.287,-1.795 0.977,-0.473 2.274,-0.707 3.899,-0.707 2.222,0 4.019,0.478 5.392,1.429 1.383,0.955 2.045,2.12 2.045,3.528 0,1.123 -0.357,2.013 -1.088,2.705 -0.743,0.707 -1.7,1.244 -2.888,1.617 -1.19,0.379 -2.79,0.779 -4.794,1.201 -2.691,0.586 -4.941,1.27 -6.766,2.057 -1.823,0.787 -3.278,1.863 -4.355,3.226 -1.08,1.373 -1.617,3.082 -1.617,5.104 0,1.93 0.57,3.658 1.703,5.156 1.141,1.506 2.785,2.66 4.929,3.461 2.139,0.803 4.655,1.205 7.542,1.205 2.303,0 4.299,-0.266 5.988,-0.797 1.682,-0.535 3.088,-1.242 4.205,-2.127 1.116,-0.884 1.939,-1.814 2.456,-2.793 0.521,-0.978 0.783,-1.939 0.783,-2.871 0,-0.871 -0.336,-1.66 -0.995,-2.349 -0.658,-0.694 -1.495,-1.045 -2.474,-1.041 -0.885,0 -1.577,0.201 -2.059,0.632 -0.468,0.42 -0.961,1.084 -1.492,2.012 -0.676,1.291 -1.478,2.299 -2.415,3.022 -0.915,0.705 -2.419,1.076 -4.511,1.07 -1.941,0 -3.488,-0.397 -4.659,-1.172 -1.179,-0.785 -1.741,-1.697 -1.745,-2.768 0.004,-0.671 0.197,-1.236 0.585,-1.716 0.393,-0.491 0.942,-0.91 1.646,-1.27 0.705,-0.359 1.419,-0.639 2.14,-0.842 0.729,-0.205 1.939,-0.502 3.616,-0.898 2.105,-0.457 4.017,-0.965 5.735,-1.516 1.716,-0.554 3.175,-1.226 4.384,-2.025 1.218,-0.795 2.171,-1.807 2.85,-3.035 C 1.43,8.992 1.767,7.492 1.767,5.729 1.77,3.604 1.178,1.693 0,0 m 14.268,8.313 c 0.224,1.414 0.341,2.861 0.341,4.339 0,15.368 -12.451,27.819 -27.816,27.819 -1.478,0 -2.926,-0.119 -4.341,-0.342 -2.563,1.584 -5.585,2.502 -8.827,2.502 -9.283,0 -16.809,-7.526 -16.809,-16.813 0,-3.238 0.915,-6.257 2.5,-8.828 -0.216,-1.418 -0.337,-2.859 -0.337,-4.338 0,-15.365 12.451,-27.816 27.812,-27.816 1.477,0 2.928,0.115 4.342,0.34 2.566,-1.582 5.588,-2.502 8.828,-2.502 9.285,0 16.81,7.529 16.81,16.808 0,3.241 -0.916,6.264 -2.503,8.831"
             style="fill:#f1f2f2;fill-opacity:1;fill-rule:nonzero;stroke:none"
             id="path160"
             inkscape:connector-curvature="0" />
        </g>
        <g
           id="g162"
           transform="translate(500.2007,674.4419)">
          <path
             d="m 0,0 c 0,30.283 24.549,54.832 54.832,54.832 30.283,0 54.833,-24.549 54.833,-54.832 0,-30.284 -24.55,-54.833 -54.833,-54.833 C 24.549,-54.833 0,-30.284 0,0"
             style="fill:#339dc3;fill-opacity:1;fill-rule:nonzero;stroke:none"
             id="path164"
             inkscape:connector-curvature="0" />
        </g>
        <g
           id="g166"
           transform="translate(588.8765,695.4341)">
          <path
             d="m 0,0 c -2.49,-1.104 -5.168,-1.852 -7.977,-2.186 2.868,1.719 5.069,4.438 6.108,7.682 -2.684,-1.592 -5.656,-2.747 -8.819,-3.369 -2.533,2.698 -6.142,4.385 -10.138,4.385 -7.668,0 -13.887,-6.219 -13.887,-13.887 0,-1.089 0.123,-2.148 0.361,-3.165 -11.541,0.579 -21.773,6.107 -28.623,14.511 -1.195,-2.051 -1.88,-4.438 -1.88,-6.983 0,-4.816 2.453,-9.068 6.177,-11.558 -2.275,0.072 -4.418,0.696 -6.289,1.738 -0.002,-0.059 -0.002,-0.118 -0.002,-0.176 0,-6.728 4.789,-12.34 11.141,-13.615 -1.164,-0.318 -2.393,-0.488 -3.658,-0.488 -0.897,0 -1.766,0.087 -2.614,0.248 1.768,-5.516 6.895,-9.531 12.973,-9.643 -4.754,-3.725 -10.74,-5.945 -17.248,-5.945 -1.119,0 -2.227,0.065 -3.311,0.194 6.143,-3.941 13.444,-6.24 21.286,-6.24 25.543,0 39.511,21.159 39.511,39.513 0,0.601 -0.013,1.201 -0.041,1.796 C -4.215,-5.23 -1.861,-2.785 0,0"
             style="fill:#f1f2f2;fill-opacity:1;fill-rule:nonzero;stroke:none"
             id="path168"
             inkscape:connector-curvature="0" />
        </g>
        <g
           id="g170"
           transform="translate(592.0122,613.3237)">
          <path
             d="m 0,0 c 0,30.283 24.548,54.833 54.832,54.833 30.283,0 54.832,-24.55 54.832,-54.833 0,-30.284 -24.549,-54.833 -54.832,-54.833 C 24.548,-54.833 0,-30.284 0,0"
             style="fill:#4060a5;fill-opacity:1;fill-rule:nonzero;stroke:none"
             id="path172"
             inkscape:connector-curvature="0" />
        </g>
        <g
           id="g174"
           transform="translate(669.0723,628.6021)">
          <path
             d="m 0,0 c 0,-0.826 -0.557,-1.383 -1.385,-1.383 h -5.564 c -0.828,0 -1.383,0.557 -1.383,1.383 v 5.564 c 0,0.827 0.555,1.383 1.383,1.383 h 5.564 C -0.557,6.947 0,6.391 0,5.564 Z m -43.07,-37.504 c -0.828,0 -1.385,0.557 -1.385,1.383 v 23.625 h 5.836 c -0.285,-0.84 -0.285,-1.955 -0.285,-2.781 0,-9.176 7.504,-16.678 16.675,-16.678 9.174,0 16.678,7.502 16.678,16.678 0,0.826 0,1.941 -0.285,2.781 H 0 v -23.625 c 0,-0.826 -0.557,-1.383 -1.385,-1.383 z m 20.841,33.34 c 6.122,0 11.116,-4.992 11.116,-11.113 0,-6.119 -4.994,-11.114 -11.116,-11.114 -6.119,0 -11.113,4.995 -11.113,11.114 0,6.121 4.994,11.113 11.113,11.113 M 0,12.512 h -44.455 c -3.066,0 -5.563,-2.496 -5.563,-5.565 v -44.451 c 0,-3.066 2.497,-5.564 5.563,-5.564 H 0 c 3.066,0 5.562,2.498 5.562,5.564 V 6.947 c 0,3.069 -2.496,5.565 -5.562,5.565"
             style="fill:#f1f2f2;fill-opacity:1;fill-rule:nonzero;stroke:none"
             id="path176"
             inkscape:connector-curvature="0" />
        </g>
        <g
           id="g178"
           transform="translate(101.77,423.1104)">
          <path
             d="m 0,0 c 0,30.283 24.549,53.833 54.832,53.833 30.284,0 54.832,-21.883 54.832,-54.833 0,-27.614 -24.548,-54.834 -54.832,-54.834 C 24.549,-55.834 0,-30.285 0,0"
             style="fill:#65459b;fill-opacity:1;fill-rule:nonzero;stroke:none"
             id="path180"
             inkscape:connector-curvature="0" />
        </g>
        <g
           id="g182"
           transform="translate(181.3843,417.7998)">
          <path
             d="M 0,0 V 28.662 H -42.984 V -9.107 h 11.724 v -7.811 l 7.812,7.811 h 14.32 z m -10.427,-18.217 h -11.724 l -7.81,-7.83 h -7.81 v 7.83 h -14.321 v 41.666 l 3.895,10.428 H 5.193 V -2.598 Z"
             style="fill:#f1f2f2;fill-opacity:1;fill-rule:nonzero;stroke:none"
             id="path184"
             inkscape:connector-curvature="0" />
        </g>
        <path
           d="m 152.722,420.417 h 5.214 v 15.619 h -5.214 z m 14.321,-0.02 h 5.213 v 15.639 h -5.213 z"
           style="fill:#f1f2f2;fill-opacity:1;fill-rule:nonzero;stroke:none"
           id="path186"
           inkscape:connector-curvature="0" />
        <g
           id="g188"
           transform="translate(584.1987,219.9746)">
          <path
             d="m 0,0 c 0,30.283 24.549,54.832 54.833,54.832 30.283,0 54.832,-24.549 54.832,-54.832 0,-30.283 -24.549,-54.832 -54.832,-54.832 C 24.549,-54.832 0,-30.283 0,0"
             style="fill:#e52d27;fill-opacity:1;fill-rule:nonzero;stroke:none"
             id="path190"
             inkscape:connector-curvature="0" />
        </g>
        <g
           id="g192"
           transform="translate(632.4766,208.8867)">
          <path
             d="m 0,0 v 24.684 l 18.721,-12.34 z m 39.33,24.229 c 0,5.414 -4.385,9.8 -9.799,9.8 h -45.955 c -5.412,0 -9.797,-4.386 -9.797,-9.8 V -2.053 c 0,-5.412 4.385,-9.801 9.797,-9.801 h 45.955 c 5.414,0 9.799,4.389 9.799,9.801 z"
             style="fill:#f1f2f2;fill-opacity:1;fill-rule:evenodd;stroke:none"
             id="path194"
             inkscape:connector-curvature="0" />
        </g>
        <g
           id="g196"
           transform="translate(650.9238,307.1309)">
          <path
             d="m 0,0 c 0,30.283 24.549,54.833 54.832,54.833 30.283,0 54.832,-24.55 54.832,-54.833 0,-30.284 -24.549,-54.833 -54.832,-54.833 C 24.549,-54.833 0,-30.284 0,0"
             style="fill:#dc4335;fill-opacity:1;fill-rule:nonzero;stroke:none"
             id="path198"
             inkscape:connector-curvature="0" />
        </g>
        <g
           id="g200"
           transform="translate(693.0879,310.2979)">
          <path
             d="M 0,0 V -7.601 H 12.572 C 12.066,-10.862 8.771,-17.164 0,-17.164 c -7.568,0 -13.742,6.269 -13.742,13.997 0,7.728 6.174,13.997 13.742,13.997 4.307,0 7.189,-1.837 8.836,-3.42 l 6.018,5.795 C 10.99,16.815 5.986,19 0,19 -12.254,19 -22.166,9.088 -22.166,-3.167 c 0,-12.255 9.912,-22.167 22.166,-22.167 12.795,0 21.281,8.993 21.281,21.66 0,1.457 -0.158,2.566 -0.347,3.674 z"
             style="fill:#f1f2f2;fill-opacity:1;fill-rule:nonzero;stroke:none"
             id="path202"
             inkscape:connector-curvature="0" />
        </g>
        <g
           id="g204"
           transform="translate(740.5898,310.2979)">
          <path
             d="m 0,0 h -6.334 v 6.333 h -6.334 V 0 H -19 v -6.334 h 6.332 v -6.333 h 6.334 v 6.333 H 0 Z"
             style="fill:#f1f2f2;fill-opacity:1;fill-rule:nonzero;stroke:none"
             id="path206"
             inkscape:connector-curvature="0" />
        </g>
        <g
           id="g208"
           transform="translate(509.4194,416.7588)">
          <path
             d="m 0,0 c 0,30.283 24.549,54.833 54.832,54.833 30.283,0 54.833,-24.55 54.833,-54.833 0,-30.284 -24.55,-54.833 -54.833,-54.833 C 24.549,-54.833 0,-30.284 0,0"
             style="fill:#b31217;fill-opacity:1;fill-rule:nonzero;stroke:none"
             id="path210"
             inkscape:connector-curvature="0" />
        </g>
        <g
           id="g212"
           transform="translate(568.5366,401.9033)">
          <path
             d="m 0,0 c -4.014,0.311 -5.7,2.301 -8.848,4.212 -1.73,-9.077 -3.844,-17.779 -10.107,-22.324 -1.936,13.719 2.837,24.023 5.054,34.962 -3.779,6.36 0.455,19.162 8.423,16.007 9.808,-3.878 -8.491,-23.649 3.793,-26.118 12.826,-2.577 18.061,22.254 10.108,30.33 -11.491,11.661 -33.45,0.266 -30.75,-16.427 0.658,-4.081 4.875,-5.321 1.684,-10.953 -7.354,1.629 -9.548,7.43 -9.266,15.164 0.455,12.659 11.374,21.522 22.326,22.749 C 6.268,49.151 19.268,42.516 21.062,29.487 23.082,14.781 14.81,-1.144 0,0"
             style="fill:#f1f2f2;fill-opacity:1;fill-rule:nonzero;stroke:none"
             id="path214"
             inkscape:connector-curvature="0" />
        </g>
        <g
           id="g216"
           transform="translate(259.1284,416.7588)">
          <path
             d="m 0,0 c 0,30.283 24.549,54.833 54.832,54.833 30.283,0 54.832,-24.55 54.832,-54.833 0,-30.285 -24.549,-54.834 -54.832,-54.834 C 24.549,-54.834 0,-30.285 0,0"
             style="fill:#008266;fill-opacity:1;fill-rule:nonzero;stroke:none"
             id="path218"
             inkscape:connector-curvature="0" />
        </g>
        <g
           id="g220"
           transform="translate(288.8257,408.8936)">
          <path
             d="M 0,0 C -1.145,5.219 -0.234,11.045 7.004,14.924 L 12.673,3.072 Z M 29.998,17 C 26.973,17.178 23.483,16.997 19.44,16.307 L 28.764,-0.5 65.81,9.672 c -0.399,0.951 -0.983,1.877 -1.755,2.774 -3.834,4.439 -12.147,8.398 -21.203,10.183 v 0.002 c -8.883,2.084 -18.503,1.996 -28.359,0.51 -0.353,-0.055 -0.707,-0.111 -1.059,-0.172 l -3.276,6.069 C 6.971,28.612 3.975,27.948 1.199,27.065 L 4.32,20.538 c -5.096,-1.973 -9.277,-4.786 -12.295,-8.168 -4.976,-5.663 -6.943,-12.78 -4.551,-19.71 0.479,-1.398 1.13,-2.724 1.932,-3.969 L 26.45,-1.133 16.164,17.918 c 0.355,0.067 0.713,0.135 1.079,0.202 16.637,2.968 25.736,-1.616 30.718,-6.496 L 35.288,8.551 Z"
             style="fill:#f1f2f2;fill-opacity:1;fill-rule:nonzero;stroke:none"
             id="path222"
             inkscape:connector-curvature="0" />
        </g>
        <g
           id="g224"
           transform="translate(380.0103,539.9761)">
          <path
             d="m 0,0 c 0,30.283 24.549,54.832 54.832,54.832 30.283,0 54.832,-24.549 54.832,-54.832 0,-30.284 -24.549,-54.833 -54.832,-54.833 C 24.549,-54.833 0,-30.284 0,0"
             style="fill:#2c4762;fill-opacity:1;fill-rule:nonzero;stroke:none"
             id="path226"
             inkscape:connector-curvature="0" />
        </g>
        <g
           id="g228"
           transform="translate(438.3853,558.8042)">
          <path
             d="M 0,0 V 14.486 H -9.35 C -9.561,13.957 -9.664,13.313 -9.664,12.668 -9.762,12.354 -9.877,12.126 -9.877,11.813 -10.836,6.441 -13.627,2.693 -18.352,0.646 -19.754,0 -21.041,-0.098 -22.43,0 v -11.678 h 6.871 c 0.112,-16.433 0.112,-24.905 0.112,-25.336 v -0.973 c 0.863,-7.169 4.611,-11.466 11.265,-13.082 2.678,-0.744 5.571,-1.074 8.475,-1.074 3.75,0.116 7.4,0.759 11.051,1.93 v 13.742 c -2.133,-0.643 -4.078,-1.186 -5.795,-1.717 -3.322,-0.971 -6.113,-0.328 -8.377,1.818 -0.213,0.328 -0.529,0.76 -0.641,1.189 -0.316,1.716 -0.517,3.536 -0.517,5.251 v 18.252 h 14.9 V 0 Z"
             style="fill:#f1f2f2;fill-opacity:1;fill-rule:nonzero;stroke:none"
             id="path230"
             inkscape:connector-curvature="0" />
        </g>
      </g>
    </g>
    <g
       transform="matrix(0.14020956,0,0,-0.14020956,-10.213967,229.47284)"
       id="g342">
      <g
         id="g344"
         clip-path="url(#clipPath348)">
        <g
           id="g350"
           transform="translate(1075.5391,407.4482)">
          <path
             d="m 0,0 c 0.039,-67.707 -54.816,-122.627 -122.523,-122.666 -67.709,-0.038 -122.627,54.817 -122.666,122.524 V 0 c 0,67.708 54.886,122.595 122.595,122.595 C -54.889,122.595 0,67.708 0,0"
             style="fill:#ffffff;fill-opacity:1;fill-rule:nonzero;stroke:none"
             id="path352"
             inkscape:connector-curvature="0" />
        </g>
        <g
           id="g354"
           transform="translate(1075.5391,407.4482)">
          <path
             d="m 0,0 c 0.039,-67.707 -54.816,-122.627 -122.523,-122.666 -67.709,-0.038 -122.627,54.817 -122.666,122.524 V 0 c 0,67.708 54.886,122.595 122.595,122.595 C -54.889,122.595 0,67.708 0,0 Z"
             style="fill:none;stroke:#090909;stroke-width:5.46500015;stroke-linecap:butt;stroke-linejoin:miter;stroke-miterlimit:4;stroke-dasharray:none;stroke-opacity:1"
             id="path356"
             inkscape:connector-curvature="0" />
        </g>
        <g
           id="g358"
           transform="translate(917.5723,432.998)">
          <path
             d="M 0,0 46.57,-35.232"
             style="fill:#000000;fill-opacity:1;fill-rule:nonzero;stroke:none"
             id="path360"
             inkscape:connector-curvature="0" />
        </g>
        <g
           id="g362">
          <g
             id="g364" />
          <g
             id="g376">
            <g
               clip-path="url(#clipPath368)"
               id="g374"
               style="opacity:0.10588098">
              <g
                 transform="translate(917.5723,432.998)"
                 id="g372">
                <path
                   d="M 0,0 46.57,-35.232"
                   style="fill:none;stroke:#000000;stroke-width:0.96700001;stroke-linecap:square;stroke-linejoin:miter;stroke-miterlimit:4;stroke-dasharray:none;stroke-opacity:1"
                   id="path370"
                   inkscape:connector-curvature="0" />
              </g>
            </g>
          </g>
        </g>
        <g
           id="g378"
           transform="translate(962.8945,509.9648)">
          <path
             d="m 0,0 3.795,-0.399 -0.92,-8.768 -3.797,0.398 z"
             style="fill:#000000;fill-opacity:1;fill-rule:nonzero;stroke:none"
             id="path380"
             inkscape:connector-curvature="0" />
        </g>
        <g
           id="g382"
           transform="translate(942.3027,314.2041)">
          <path
             d="M 0,0 3.795,-0.399 2.873,-9.168 -0.922,-8.77 Z"
             style="fill:#000000;fill-opacity:1;fill-rule:nonzero;stroke:none"
             id="path384"
             inkscape:connector-curvature="0" />
        </g>
        <g
           id="g386"
           transform="translate(973.5547,508.4771)">
          <path
             d="M 0,0 3.734,-0.793 1.9,-9.418 -1.834,-8.624 Z"
             style="fill:#000000;fill-opacity:1;fill-rule:nonzero;stroke:none"
             id="path388"
             inkscape:connector-curvature="0" />
        </g>
        <g
           id="g390"
           transform="translate(932.6113,315.9434)">
          <path
             d="M 0,0 3.734,-0.794 1.9,-9.419 -1.832,-8.625 Z"
             style="fill:#000000;fill-opacity:1;fill-rule:nonzero;stroke:none"
             id="path392"
             inkscape:connector-curvature="0" />
        </g>
        <g
           id="g394"
           transform="translate(984.002,505.8853)">
          <path
             d="M 0,0 3.631,-1.18 0.906,-9.565 -2.725,-8.386 Z"
             style="fill:#000000;fill-opacity:1;fill-rule:nonzero;stroke:none"
             id="path396"
             inkscape:connector-curvature="0" />
        </g>
        <g
           id="g398"
           transform="translate(923.1602,318.6865)">
          <path
             d="M 0,0 3.631,-1.18 0.906,-9.565 -2.725,-8.386 Z"
             style="fill:#000000;fill-opacity:1;fill-rule:nonzero;stroke:none"
             id="path400"
             inkscape:connector-curvature="0" />
        </g>
        <g
           id="g402"
           transform="translate(994.123,502.2134)">
          <path
             d="M 0,0 3.486,-1.552 -0.1,-9.607 -3.588,-8.055 Z"
             style="fill:#000000;fill-opacity:1;fill-rule:nonzero;stroke:none"
             id="path404"
             inkscape:connector-curvature="0" />
        </g>
        <g
           id="g406"
           transform="translate(914.0449,322.3984)">
          <path
             d="M 0,0 3.486,-1.553 -0.1,-9.607 -3.586,-8.055 Z"
             style="fill:#000000;fill-opacity:1;fill-rule:nonzero;stroke:none"
             id="path408"
             inkscape:connector-curvature="0" />
        </g>
        <g
           id="g410"
           transform="translate(1012.9375,491.8091)">
          <path
             d="m 0,0 3.088,-2.244 -5.182,-7.133 -3.088,2.244 z"
             style="fill:#000000;fill-opacity:1;fill-rule:nonzero;stroke:none"
             id="path412"
             inkscape:connector-curvature="0" />
        </g>
        <g
           id="g414"
           transform="translate(897.2266,332.5723)">
          <path
             d="m 0,0 3.088,-2.243 -5.184,-7.133 -3.088,2.243 z"
             style="fill:#000000;fill-opacity:1;fill-rule:nonzero;stroke:none"
             id="path416"
             inkscape:connector-curvature="0" />
        </g>
        <g
           id="g418"
           transform="translate(1021.4258,485.189)">
          <path
             d="M 0,0 2.836,-2.554 -3.063,-9.107 -5.9,-6.552 Z"
             style="fill:#000000;fill-opacity:1;fill-rule:nonzero;stroke:none"
             id="path420"
             inkscape:connector-curvature="0" />
        </g>
        <g
           id="g422"
           transform="translate(889.7012,338.9229)">
          <path
             d="m 0,0 2.836,-2.555 -5.9,-6.551 -2.836,2.554 z"
             style="fill:#000000;fill-opacity:1;fill-rule:nonzero;stroke:none"
             id="path424"
             inkscape:connector-curvature="0" />
        </g>
        <g
           id="g426"
           transform="translate(1029.1797,477.7207)">
          <path
             d="M 0,0 2.555,-2.837 -3.998,-8.736 -6.551,-5.9 Z"
             style="fill:#000000;fill-opacity:1;fill-rule:nonzero;stroke:none"
             id="path428"
             inkscape:connector-curvature="0" />
        </g>
        <g
           id="g430"
           transform="translate(882.8906,346.0205)">
          <path
             d="m 0,0 2.555,-2.836 -6.553,-5.9 -2.553,2.837 z"
             style="fill:#000000;fill-opacity:1;fill-rule:nonzero;stroke:none"
             id="path432"
             inkscape:connector-curvature="0" />
        </g>
        <g
           id="g434"
           transform="translate(1036.1074,469.48)">
          <path
             d="m 0,0 2.242,-3.088 -7.133,-5.183 -2.244,3.089 z"
             style="fill:#000000;fill-opacity:1;fill-rule:nonzero;stroke:none"
             id="path436"
             inkscape:connector-curvature="0" />
        </g>
        <g
           id="g438"
           transform="translate(876.8496,353.7959)">
          <path
             d="m 0,0 2.244,-3.088 -7.133,-5.183 -2.244,3.088 z"
             style="fill:#000000;fill-opacity:1;fill-rule:nonzero;stroke:none"
             id="path440"
             inkscape:connector-curvature="0" />
        </g>
        <g
           id="g442"
           transform="translate(1047.1992,451.0615)">
          <path
             d="m 0,0 1.553,-3.487 -8.055,-3.586 -1.553,3.487 z"
             style="fill:#000000;fill-opacity:1;fill-rule:nonzero;stroke:none"
             id="path444"
             inkscape:connector-curvature="0" />
        </g>
        <g
           id="g446"
           transform="translate(867.3711,371.0166)">
          <path
             d="m 0,0 1.551,-3.487 -8.055,-3.586 -1.553,3.486 z"
             style="fill:#000000;fill-opacity:1;fill-rule:nonzero;stroke:none"
             id="path448"
             inkscape:connector-curvature="0" />
        </g>
        <g
           id="g450"
           transform="translate(1051.2402,441.0859)">
          <path
             d="m 0,0 1.182,-3.631 -8.387,-2.723 -1.18,3.629 z"
             style="fill:#000000;fill-opacity:1;fill-rule:nonzero;stroke:none"
             id="path452"
             inkscape:connector-curvature="0" />
        </g>
        <g
           id="g454"
           transform="translate(864.0312,380.2764)">
          <path
             d="m 0,0 1.18,-3.631 -8.385,-2.723 -1.18,3.629 z"
             style="fill:#000000;fill-opacity:1;fill-rule:nonzero;stroke:none"
             id="path456"
             inkscape:connector-curvature="0" />
        </g>
        <g
           id="g458"
           transform="translate(1054.2207,430.7393)">
          <path
             d="M 0,0 0.793,-3.733 -7.83,-5.566 -8.625,-1.833 Z"
             style="fill:#000000;fill-opacity:1;fill-rule:nonzero;stroke:none"
             id="path460"
             inkscape:connector-curvature="0" />
        </g>
        <g
           id="g462"
           transform="translate(861.6797,389.8301)">
          <path
             d="m 0,0 0.793,-3.733 -8.625,-1.834 -0.793,3.734 z"
             style="fill:#000000;fill-opacity:1;fill-rule:nonzero;stroke:none"
             id="path464"
             inkscape:connector-curvature="0" />
        </g>
        <g
           id="g466"
           transform="translate(1056.0996,420.1387)">
          <path
             d="M 0,0 0.398,-3.796 -8.369,-4.718 -8.77,-0.921 Z"
             style="fill:#000000;fill-opacity:1;fill-rule:nonzero;stroke:none"
             id="path468"
             inkscape:connector-curvature="0" />
        </g>
        <g
           id="g470"
           transform="translate(860.334,399.5811)">
          <path
             d="m 0,0 0.4,-3.797 -8.769,-0.921 -0.399,3.796 z"
             style="fill:#000000;fill-opacity:1;fill-rule:nonzero;stroke:none"
             id="path472"
             inkscape:connector-curvature="0" />
        </g>
        <g
           id="g474"
           transform="translate(1056.498,398.6426)">
          <path
             d="m 0,0 -0.4,-3.797 -8.768,0.922 0.398,3.796 z"
             style="fill:#000000;fill-opacity:1;fill-rule:nonzero;stroke:none"
             id="path476"
             inkscape:connector-curvature="0" />
        </g>
        <g
           id="g478"
           transform="translate(860.7363,419.2344)">
          <path
             d="m 0,0 -0.398,-3.797 -8.77,0.922 0.398,3.797 z"
             style="fill:#000000;fill-opacity:1;fill-rule:nonzero;stroke:none"
             id="path480"
             inkscape:connector-curvature="0" />
        </g>
        <g
           id="g482"
           transform="translate(1055.0098,387.9814)">
          <path
             d="M 0,0 -0.793,-3.733 -9.418,-1.9 -8.625,1.833 Z"
             style="fill:#000000;fill-opacity:1;fill-rule:nonzero;stroke:none"
             id="path484"
             inkscape:connector-curvature="0" />
        </g>
        <g
           id="g486"
           transform="translate(862.4746,428.9248)">
          <path
             d="M 0,0 -0.793,-3.733 -9.418,-1.9 -8.625,1.833 Z"
             style="fill:#000000;fill-opacity:1;fill-rule:nonzero;stroke:none"
             id="path488"
             inkscape:connector-curvature="0" />
        </g>
        <g
           id="g490"
           transform="translate(1052.416,377.5352)">
          <path
             d="m 0,0 -1.178,-3.631 -8.386,2.725 1.179,3.63 z"
             style="fill:#000000;fill-opacity:1;fill-rule:nonzero;stroke:none"
             id="path492"
             inkscape:connector-curvature="0" />
        </g>
        <g
           id="g494"
           transform="translate(865.2187,438.376)">
          <path
             d="m 0,0 -1.18,-3.63 -8.384,2.725 1.177,3.631 z"
             style="fill:#000000;fill-opacity:1;fill-rule:nonzero;stroke:none"
             id="path496"
             inkscape:connector-curvature="0" />
        </g>
        <g
           id="g498"
           transform="translate(1048.7461,367.4141)">
          <path
             d="M 0,0 -1.553,-3.487 -9.607,0.1 -8.055,3.587 Z"
             style="fill:#000000;fill-opacity:1;fill-rule:nonzero;stroke:none"
             id="path500"
             inkscape:connector-curvature="0" />
        </g>
        <g
           id="g502"
           transform="translate(868.9316,447.4912)">
          <path
             d="m 0,0 -1.553,-3.487 -8.054,3.586 1.552,3.487 z"
             style="fill:#000000;fill-opacity:1;fill-rule:nonzero;stroke:none"
             id="path504"
             inkscape:connector-curvature="0" />
        </g>
        <g
           id="g506"
           transform="translate(1038.3398,348.5996)">
          <path
             d="m 0,0 -2.242,-3.089 -7.133,5.183 2.242,3.088 z"
             style="fill:#000000;fill-opacity:1;fill-rule:nonzero;stroke:none"
             id="path508"
             inkscape:connector-curvature="0" />
        </g>
        <g
           id="g510"
           transform="translate(879.1055,464.3105)">
          <path
             d="m 0,0 -2.244,-3.088 -7.133,5.182 2.244,3.089 z"
             style="fill:#000000;fill-opacity:1;fill-rule:nonzero;stroke:none"
             id="path512"
             inkscape:connector-curvature="0" />
        </g>
        <g
           id="g514"
           transform="translate(1031.7207,340.1104)">
          <path
             d="m 0,0 -2.555,-2.837 -6.552,5.9 2.554,2.837 z"
             style="fill:#000000;fill-opacity:1;fill-rule:nonzero;stroke:none"
             id="path516"
             inkscape:connector-curvature="0" />
        </g>
        <g
           id="g518"
           transform="translate(885.4531,471.8359)">
          <path
             d="m 0,0 -2.553,-2.837 -6.552,5.9 2.554,2.837 z"
             style="fill:#000000;fill-opacity:1;fill-rule:nonzero;stroke:none"
             id="path520"
             inkscape:connector-curvature="0" />
        </g>
        <g
           id="g522"
           transform="translate(1024.252,332.3574)">
          <path
             d="m 0,0 -2.836,-2.555 -5.9,6.553 2.838,2.554 z"
             style="fill:#000000;fill-opacity:1;fill-rule:nonzero;stroke:none"
             id="path524"
             inkscape:connector-curvature="0" />
        </g>
        <g
           id="g526"
           transform="translate(892.5527,478.6465)">
          <path
             d="m 0,0 -2.836,-2.554 -5.9,6.552 2.836,2.554 z"
             style="fill:#000000;fill-opacity:1;fill-rule:nonzero;stroke:none"
             id="path528"
             inkscape:connector-curvature="0" />
        </g>
        <g
           id="g530"
           transform="translate(1016.0137,325.4297)">
          <path
             d="M 0,0 -3.088,-2.243 -8.271,4.89 -5.184,7.133 Z"
             style="fill:#000000;fill-opacity:1;fill-rule:nonzero;stroke:none"
             id="path532"
             inkscape:connector-curvature="0" />
        </g>
        <g
           id="g534"
           transform="translate(900.3281,484.687)">
          <path
             d="M 0,0 -3.088,-2.244 -8.27,4.889 -5.182,7.133 Z"
             style="fill:#000000;fill-opacity:1;fill-rule:nonzero;stroke:none"
             id="path536"
             inkscape:connector-curvature="0" />
        </g>
        <g
           id="g538"
           transform="translate(997.5937,314.3379)">
          <path
             d="m 0,0 -3.486,-1.553 -3.586,8.056 3.486,1.552 z"
             style="fill:#000000;fill-opacity:1;fill-rule:nonzero;stroke:none"
             id="path540"
             inkscape:connector-curvature="0" />
        </g>
        <g
           id="g542"
           transform="translate(917.5488,494.1665)">
          <path
             d="m 0,0 -3.488,-1.553 -3.586,8.055 3.488,1.553 z"
             style="fill:#000000;fill-opacity:1;fill-rule:nonzero;stroke:none"
             id="path544"
             inkscape:connector-curvature="0" />
        </g>
        <g
           id="g546"
           transform="translate(987.6172,310.2949)">
          <path
             d="m 0,0 -3.631,-1.179 -2.724,8.385 3.63,1.18 z"
             style="fill:#000000;fill-opacity:1;fill-rule:nonzero;stroke:none"
             id="path548"
             inkscape:connector-curvature="0" />
        </g>
        <g
           id="g550"
           transform="translate(926.8086,497.5044)">
          <path
             d="m 0,0 -3.631,-1.179 -2.724,8.385 3.63,1.18 z"
             style="fill:#000000;fill-opacity:1;fill-rule:nonzero;stroke:none"
             id="path552"
             inkscape:connector-curvature="0" />
        </g>
        <g
           id="g554"
           transform="translate(977.2734,307.3164)">
          <path
             d="M 0,0 -3.734,-0.794 -5.568,7.83 -1.834,8.624 Z"
             style="fill:#000000;fill-opacity:1;fill-rule:nonzero;stroke:none"
             id="path556"
             inkscape:connector-curvature="0" />
        </g>
        <g
           id="g558"
           transform="translate(936.3633,499.8574)">
          <path
             d="m 0,0 -3.734,-0.793 -1.832,8.624 3.732,0.794 z"
             style="fill:#000000;fill-opacity:1;fill-rule:nonzero;stroke:none"
             id="path560"
             inkscape:connector-curvature="0" />
        </g>
        <g
           id="g562"
           transform="translate(966.6738,305.4365)">
          <path
             d="M 0,0 -3.795,-0.399 -4.717,8.37 -0.92,8.769 Z"
             style="fill:#000000;fill-opacity:1;fill-rule:nonzero;stroke:none"
             id="path564"
             inkscape:connector-curvature="0" />
        </g>
        <g
           id="g566"
           transform="translate(946.1172,501.1973)">
          <path
             d="M 0,0 -3.797,-0.399 -4.719,8.37 -0.922,8.769 Z"
             style="fill:#000000;fill-opacity:1;fill-rule:nonzero;stroke:none"
             id="path568"
             inkscape:connector-curvature="0" />
        </g>
        <path
           d="m 949.809,510.33 h 8.441 v -29.958 h -8.441 z"
           style="fill:#ffcc00;fill-opacity:1;fill-rule:nonzero;stroke:none"
           id="path570"
           inkscape:connector-curvature="0" />
        <path
           d="m 949.809,334.633 h 8.441 v -29.958 h -8.441 z"
           style="fill:#ffcc00;fill-opacity:1;fill-rule:nonzero;stroke:none"
           id="path572"
           inkscape:connector-curvature="0" />
        <path
           d="M 1056.857,403.281 H 1026.9 v 8.442 h 29.957 z"
           style="fill:#ffcc00;fill-opacity:1;fill-rule:nonzero;stroke:none"
           id="path574"
           inkscape:connector-curvature="0" />
        <path
           d="m 881.162,403.281 h -29.959 v 8.442 h 29.959 z"
           style="fill:#ffcc00;fill-opacity:1;fill-rule:nonzero;stroke:none"
           id="path576"
           inkscape:connector-curvature="0" />
        <g
           id="g582"
           transform="translate(917.7109,434.1074)">
          <path
             d="M 0,0 46.57,-35.232"
             style="fill:#000000;fill-opacity:1;fill-rule:nonzero;stroke:#000000;stroke-width:7;stroke-linecap:square;stroke-linejoin:miter;stroke-miterlimit:4;stroke-dasharray:none;stroke-opacity:1"
             id="path584"
             inkscape:connector-curvature="0" />
        </g>
        <g
           id="g586"
           transform="translate(955.2363,403.9268)">
          <path
             d="M 0,0 C -1.758,-0.792 -3.828,-0.005 -4.623,1.759 -5.418,3.522 -4.637,5.595 -2.877,6.387 -1.119,7.18 0.951,6.392 1.746,4.628 2.537,2.871 1.766,0.807 0.018,0.008 l -1.457,3.184 z"
             style="fill:#000000;fill-opacity:1;fill-rule:nonzero;stroke:none"
             id="path588"
             inkscape:connector-curvature="0" />
        </g>
        <g
           id="g590"
           transform="translate(956.5527,408.3301)">
          <path
             d="m 0,0 c 0.746,-1.657 0.287,-3.616 -1.371,-4.363 -1.656,-0.748 -3.758,-0.166 -4.627,1.635 -0.789,1.638 0.939,5.854 1.262,4.458"
             style="fill:#000000;fill-opacity:1;fill-rule:nonzero;stroke:none"
             id="path592"
             inkscape:connector-curvature="0" />
        </g>
        <g
           id="g594"
           transform="translate(1008.4199,319.9766)"
           style="fill:#ffcc00">
          <path
             d="m 0,0 -5.225,-3.078 -10.923,18.545 5.226,3.078 z"
             style="fill:#ffcc00;fill-opacity:1;fill-rule:nonzero;stroke:none"
             id="path596"
             inkscape:connector-curvature="0" />
        </g>
        <g
           id="g598"
           transform="translate(915.9707,479.4565)"
           style="fill:#ffcc00">
          <path
             d="m 0,0 -5.334,-3.143 -11.152,18.935 5.336,3.143 z"
             style="fill:#ffcc00;fill-opacity:1;fill-rule:nonzero;stroke:none"
             id="path600"
             inkscape:connector-curvature="0" />
        </g>
        <g
           id="g602"
           transform="translate(1003.4082,498.7891)"
           style="fill:#ffcc00">
          <path
             d="m 0,0 5.211,-3.1 -11,-18.498 -5.213,3.099 z"
             style="fill:#ffcc00;fill-opacity:1;fill-rule:nonzero;stroke:none"
             id="path604"
             inkscape:connector-curvature="0" />
        </g>
        <g
           id="g606"
           transform="translate(910.9043,338.9834)"
           style="fill:#ffcc00">
          <path
             d="m 0,0 5.32,-3.164 -11.23,-18.888 -5.322,3.164 z"
             style="fill:#ffcc00;fill-opacity:1;fill-rule:nonzero;stroke:none"
             id="path608"
             inkscape:connector-curvature="0" />
        </g>
        <g
           id="g610"
           transform="translate(1041.0391,462.2539)"
           style="fill:#ffcc00">
          <path
             d="m 0,0 3.088,-5.219 -18.524,-10.96 -3.087,5.22 z"
             style="fill:#ffcc00;fill-opacity:1;fill-rule:nonzero;stroke:none"
             id="path612"
             inkscape:connector-curvature="0" />
        </g>
        <g
           id="g614"
           transform="translate(882.2949,369.5986)"
           style="fill:#ffcc00">
          <path
             d="m 0,0 3.154,-5.328 -18.912,-11.191 -3.154,5.33 z"
             style="fill:#ffcc00;fill-opacity:1;fill-rule:nonzero;stroke:none"
             id="path616"
             inkscape:connector-curvature="0" />
        </g>
        <g
           id="g618"
           transform="translate(1044.9941,358.8477)"
           style="fill:#ffcc00">
          <path
             d="m 0,0 -2.992,-5.275 -18.721,10.618 2.992,5.275 z"
             style="fill:#ffcc00;fill-opacity:1;fill-rule:nonzero;stroke:none"
             id="path620"
             inkscape:connector-curvature="0" />
        </g>
        <g
           id="g622"
           transform="translate(885.1406,451.3296)"
           style="fill:#ffcc00">
          <path
             d="m 0,0 -3.055,-5.386 -19.113,10.841 3.055,5.386 z"
             style="fill:#ffcc00;fill-opacity:1;fill-rule:nonzero;stroke:none"
             id="path624"
             inkscape:connector-curvature="0" />
        </g>
        <g
           id="g626"
           transform="translate(954.4199,405.7334)">
          <path
             d="M 0,0 C -0.764,-0.344 -1.662,-0.001 -2.006,0.765 -2.352,1.53 -2.012,2.429 -1.248,2.772 -0.484,3.116 0.414,2.773 0.758,2.008 1.088,1.274 0.791,0.412 0.08,0.039"
             style="fill:#000000;fill-opacity:1;fill-rule:nonzero;stroke:none"
             id="path628"
             inkscape:connector-curvature="0" />
        </g>
        <g
           id="g630"
           transform="translate(954.3828,405.8232)">
          <path
             d="M 0,0 C -0.715,-0.32 -1.553,0 -1.875,0.716 -2.197,1.431 -1.881,2.271 -1.166,2.593 -0.453,2.913 0.387,2.594 0.709,1.878 1.018,1.192 0.74,0.386 0.076,0.038"
             style="fill:#000000;fill-opacity:1;fill-rule:nonzero;stroke:none"
             id="path632"
             inkscape:connector-curvature="0" />
        </g>
        <g
           id="g578"
           transform="rotate(-32.855127,1130.8898,-1406.3658)"
           inkscape:transform-center-x="1.7877193"
           inkscape:transform-center-y="-0.68191063">
          <path
             d="M -4.6661066,10.469693 44.627707,105.07883"
             style="fill:#000000;fill-opacity:1;fill-rule:nonzero;stroke:#282d30;stroke-width:7;stroke-linecap:square;stroke-linejoin:miter;stroke-miterlimit:4;stroke-dasharray:none;stroke-opacity:1"
             id="path580"
             inkscape:connector-curvature="0" />
        </g>
      </g>
    </g>
  </g>
</svg>
